<svg xmlns="http://www.w3.org/2000/svg" xmlns:xlink="http://www.w3.org/1999/xlink" width="500" zoomAndPan="magnify" viewBox="0 0 375 374.999991" height="500" preserveAspectRatio="xMidYMid meet" version="1.0"><defs><g/><clipPath id="b3a31d3ed2"><path d="M 49.5 147.042969 L 325.488281 147.042969 L 325.488281 236.269531 L 49.5 236.269531 Z M 49.5 147.042969 " clip-rule="nonzero"/></clipPath><clipPath id="9e6d016cd4"><path d="M 0.359375 10 L 45.480469 10 L 45.480469 60 L 0.359375 60 Z M 0.359375 10 " clip-rule="nonzero"/></clipPath><clipPath id="dab49d336f"><rect x="0" width="46" y="0" height="71"/></clipPath><clipPath id="ed47b4e696"><rect x="0" width="47" y="0" height="71"/></clipPath><clipPath id="828acc1bac"><path d="M 0.0390625 10 L 44.441406 10 L 44.441406 60 L 0.0390625 60 Z M 0.0390625 10 " clip-rule="nonzero"/></clipPath><clipPath id="b2383a133a"><rect x="0" width="45" y="0" height="71"/></clipPath><clipPath id="4e3c68f887"><path d="M 0.238281 10 L 45.839844 10 L 45.839844 60 L 0.238281 60 Z M 0.238281 10 " clip-rule="nonzero"/></clipPath><clipPath id="7813e0f303"><rect x="0" width="46" y="0" height="71"/></clipPath><clipPath id="c55f06e11f"><path d="M 121.566406 222.777344 L 253.433594 222.777344 L 253.433594 244.496094 L 121.566406 244.496094 Z M 121.566406 222.777344 " clip-rule="nonzero"/></clipPath><clipPath id="5ae2fd86cb"><path d="M 0.566406 0.777344 L 132.433594 0.777344 L 132.433594 22.496094 L 0.566406 22.496094 Z M 0.566406 0.777344 " clip-rule="nonzero"/></clipPath><clipPath id="8ac1b41aa4"><rect x="0" width="133" y="0" height="23"/></clipPath><clipPath id="5794abe1c8"><path d="M 0.601562 10 L 45.71875 10 L 45.71875 60 L 0.601562 60 Z M 0.601562 10 " clip-rule="nonzero"/></clipPath><clipPath id="eed7b882ef"><rect x="0" width="46" y="0" height="71"/></clipPath><clipPath id="6e2894ae7a"><path d="M 0.199219 10 L 27 10 L 27 60 L 0.199219 60 Z M 0.199219 10 " clip-rule="nonzero"/></clipPath><clipPath id="fe145b921c"><rect x="0" width="28" y="0" height="71"/></clipPath><clipPath id="33a388619c"><path d="M 0.199219 10 L 45.320312 10 L 45.320312 60 L 0.199219 60 Z M 0.199219 10 " clip-rule="nonzero"/></clipPath><clipPath id="24b564ea16"><rect x="0" width="46" y="0" height="71"/></clipPath><clipPath id="021a5029f3"><rect x="0" width="118" y="0" height="11"/></clipPath></defs><g clip-path="url(#b3a31d3ed2)"><path stroke-linecap="butt" transform="matrix(0.75, 0, 0, 0.75, 49.500253, 147.044083)" fill="none" stroke-linejoin="miter" d="M -0.000337666 -0.00148586 L 367.984085 -0.00148586 L 367.984085 118.96728 L -0.000337666 118.96728 Z M -0.000337666 -0.00148586 " stroke="#ffffff" stroke-width="8" stroke-opacity="1" stroke-miterlimit="4"/></g><g transform="matrix(1, 0, 0, 1, 267, 157)"><g clip-path="url(#dab49d336f)"><g clip-path="url(#9e6d016cd4)"><g fill="#000000" fill-opacity="1"><g transform="translate(1.49653, 56.672624)"><g><path d="M 43.289062 -11.582031 L 43.289062 -7.742188 C 43.289062 -7.398438 43.300781 -6.867188 43.320312 -6.152344 C 43.34375 -5.425781 43.378906 -4.644531 43.425781 -3.804688 C 43.472656 -2.929688 43.507812 -2.183594 43.53125 -1.566406 L 43.566406 -0.609375 L 43.566406 -0.558594 C 43.566406 0.351562 43.265625 1.105469 42.660156 1.710938 C 42.058594 2.3125 41.300781 2.617188 40.394531 2.617188 L 2.652344 2.617188 C 1.566406 2.617188 0.6875 2.257812 0.0195312 1.535156 C -0.648438 0.816406 -0.941406 -0.0820312 -0.867188 -1.164062 L 1.742188 -0.976562 L -0.871094 -1.082031 C -0.730469 -4.539062 -0.652344 -8.011719 -0.628906 -11.492188 L -0.523438 -22.070312 C -0.476562 -25.558594 -0.347656 -29.066406 -0.136719 -32.597656 C 0.0625 -35.902344 -0.078125 -39.1875 -0.566406 -42.449219 C -0.742188 -43.519531 -0.464844 -44.472656 0.277344 -45.304688 C 0.984375 -46.101562 1.867188 -46.496094 2.929688 -46.496094 L 40.113281 -46.496094 C 40.835938 -46.496094 41.472656 -46.289062 42.03125 -45.871094 C 42.5625 -45.472656 42.933594 -44.945312 43.152344 -44.289062 L 43.289062 -43.886719 L 43.289062 -43.460938 C 43.289062 -43.363281 43.273438 -43.097656 43.25 -42.671875 C 43.222656 -42.246094 43.183594 -41.820312 43.128906 -41.394531 L 40.53125 -41.71875 L 43.148438 -41.71875 C 43.148438 -41.4375 43.125 -40.855469 43.074219 -39.96875 C 43.03125 -39.15625 42.996094 -38.3125 42.972656 -37.429688 C 42.949219 -36.546875 42.941406 -35.882812 42.941406 -35.441406 C 42.941406 -35.035156 42.960938 -34.523438 43.003906 -33.910156 C 43.046875 -33.289062 43.097656 -32.738281 43.160156 -32.253906 L 43.289062 -31.285156 L 43.289062 -31.113281 C 43.289062 -30.144531 42.945312 -29.355469 42.253906 -28.742188 C 41.652344 -28.207031 40.917969 -27.941406 40.042969 -27.941406 L 40.011719 -27.941406 L 38.617188 -27.976562 C 37.730469 -28 36.605469 -28.011719 35.230469 -28.011719 L 30.800781 -28.011719 C 29.273438 -28.011719 27.863281 -27.988281 26.566406 -27.941406 C 25.320312 -27.898438 24.363281 -27.835938 23.695312 -27.75 C 23.265625 -27.695312 22.808594 -27.554688 22.320312 -27.335938 C 22.394531 -27.371094 22.46875 -27.4375 22.539062 -27.539062 C 22.574219 -27.589844 22.601562 -27.636719 22.617188 -27.683594 L 22.621094 -27.6875 C 22.65625 -28.058594 22.550781 -28.359375 22.300781 -28.59375 C 22.457031 -28.445312 22.609375 -28.339844 22.757812 -28.273438 L 21.695312 -25.882812 L 22.210938 -28.449219 C 22.304688 -28.429688 22.898438 -28.398438 23.992188 -28.355469 C 25.191406 -28.3125 26.636719 -28.289062 28.324219 -28.289062 C 30.035156 -28.289062 31.753906 -28.300781 33.488281 -28.324219 C 35.242188 -28.347656 36.730469 -28.359375 37.953125 -28.359375 L 40.042969 -28.359375 C 40.917969 -28.359375 41.652344 -28.09375 42.253906 -27.558594 C 42.945312 -26.945312 43.289062 -26.152344 43.289062 -25.183594 L 43.289062 -16.882812 C 43.289062 -15.914062 42.945312 -15.121094 42.253906 -14.507812 C 41.652344 -13.976562 40.917969 -13.707031 40.042969 -13.707031 C 39.238281 -13.707031 38.121094 -13.71875 36.6875 -13.742188 C 35.257812 -13.765625 33.777344 -13.800781 32.253906 -13.847656 C 30.753906 -13.894531 29.402344 -13.929688 28.203125 -13.953125 C 27.011719 -13.976562 26.214844 -13.988281 25.8125 -13.988281 L 25.8125 -16.605469 L 26.074219 -14 C 25.519531 -13.945312 24.863281 -13.917969 24.101562 -13.917969 C 23.691406 -13.917969 23.308594 -13.863281 22.953125 -13.753906 C 23.0625 -13.789062 23.144531 -13.859375 23.199219 -13.96875 C 23.167969 -13.910156 23.152344 -13.875 23.144531 -13.859375 C 23.148438 -13.863281 23.148438 -13.871094 23.152344 -13.882812 C 23.171875 -13.96875 23.179688 -14.0625 23.167969 -14.175781 C 23.140625 -14.453125 23.046875 -14.667969 22.882812 -14.828125 C 23.152344 -14.566406 23.433594 -14.402344 23.726562 -14.328125 L 23.089844 -11.789062 L 23.605469 -14.355469 C 23.902344 -14.296875 24.683594 -14.265625 25.953125 -14.265625 C 27.359375 -14.265625 28.96875 -14.300781 30.769531 -14.371094 L 36.070312 -14.578125 C 37.753906 -14.648438 39.03125 -14.707031 39.90625 -14.75 L 39.976562 -14.753906 L 40.042969 -14.753906 C 40.917969 -14.753906 41.652344 -14.488281 42.253906 -13.953125 C 42.945312 -13.339844 43.289062 -12.550781 43.289062 -11.582031 Z M 38.054688 -11.582031 C 38.054688 -10.984375 38.296875 -10.472656 38.777344 -10.042969 C 39.167969 -9.695312 39.589844 -9.523438 40.042969 -9.523438 L 40.042969 -12.140625 L 40.183594 -9.527344 C 39.289062 -9.480469 37.984375 -9.421875 36.277344 -9.351562 L 30.96875 -9.140625 C 29.097656 -9.070312 27.425781 -9.035156 25.953125 -9.035156 C 24.335938 -9.035156 23.214844 -9.097656 22.578125 -9.222656 L 22.519531 -9.238281 L 22.457031 -9.25 C 21.261719 -9.550781 20.195312 -10.152344 19.253906 -11.054688 C 18.488281 -11.792969 18.054688 -12.667969 17.957031 -13.679688 C 17.875 -14.5625 18.0625 -15.4375 18.519531 -16.308594 C 19.132812 -17.535156 20.097656 -18.351562 21.414062 -18.753906 C 22.269531 -19.019531 23.167969 -19.148438 24.101562 -19.148438 C 24.691406 -19.148438 25.171875 -19.167969 25.550781 -19.207031 L 25.683594 -19.21875 L 25.8125 -19.21875 C 26.246094 -19.21875 27.078125 -19.207031 28.304688 -19.183594 C 29.523438 -19.160156 30.894531 -19.125 32.414062 -19.078125 C 33.914062 -19.03125 35.367188 -19 36.773438 -18.976562 C 38.175781 -18.953125 39.269531 -18.941406 40.042969 -18.941406 C 39.589844 -18.941406 39.167969 -18.765625 38.777344 -18.417969 C 38.296875 -17.992188 38.054688 -17.480469 38.054688 -16.882812 L 38.054688 -25.183594 C 38.054688 -24.585938 38.296875 -24.074219 38.777344 -23.648438 C 39.167969 -23.300781 39.589844 -23.125 40.042969 -23.125 L 37.953125 -23.125 C 36.753906 -23.125 35.289062 -23.113281 33.554688 -23.09375 C 31.800781 -23.070312 30.054688 -23.058594 28.324219 -23.058594 C 26.570312 -23.058594 25.0625 -23.082031 23.796875 -23.128906 C 22.421875 -23.179688 21.554688 -23.242188 21.183594 -23.316406 L 20.898438 -23.375 L 20.632812 -23.492188 C 19.945312 -23.796875 19.308594 -24.226562 18.722656 -24.777344 C 17.726562 -25.707031 17.292969 -26.871094 17.421875 -28.265625 C 17.519531 -29.125 17.792969 -29.882812 18.253906 -30.539062 C 18.730469 -31.222656 19.371094 -31.742188 20.167969 -32.105469 C 21.121094 -32.535156 22.082031 -32.816406 23.046875 -32.941406 C 23.867188 -33.046875 24.980469 -33.121094 26.382812 -33.171875 C 27.738281 -33.21875 29.210938 -33.242188 30.800781 -33.242188 L 35.230469 -33.242188 C 36.648438 -33.242188 37.820312 -33.230469 38.75 -33.207031 L 40.113281 -33.171875 L 40.042969 -30.554688 L 40.042969 -33.171875 C 39.589844 -33.171875 39.167969 -33 38.777344 -32.652344 C 38.296875 -32.222656 38.054688 -31.710938 38.054688 -31.113281 L 40.671875 -31.113281 L 38.078125 -30.777344 L 37.972656 -31.578125 C 37.898438 -32.164062 37.832031 -32.824219 37.78125 -33.550781 C 37.734375 -34.285156 37.707031 -34.914062 37.707031 -35.441406 C 37.707031 -35.925781 37.71875 -36.636719 37.742188 -37.566406 C 37.765625 -38.496094 37.804688 -39.394531 37.851562 -40.257812 C 37.894531 -41.046875 37.917969 -41.535156 37.917969 -41.71875 L 37.917969 -41.882812 L 37.9375 -42.042969 C 37.976562 -42.363281 38.007812 -42.679688 38.027344 -43 C 38.039062 -43.179688 38.046875 -43.316406 38.050781 -43.417969 C 38.054688 -43.460938 38.054688 -43.492188 38.054688 -43.515625 C 38.058594 -43.523438 38.058594 -43.523438 38.058594 -43.523438 C 38.054688 -43.507812 38.054688 -43.484375 38.054688 -43.460938 L 40.671875 -43.460938 L 38.191406 -42.636719 C 38.316406 -42.257812 38.550781 -41.941406 38.894531 -41.683594 C 39.265625 -41.40625 39.671875 -41.265625 40.113281 -41.265625 L 2.929688 -41.265625 C 3.433594 -41.265625 3.855469 -41.453125 4.1875 -41.828125 C 4.554688 -42.242188 4.695312 -42.707031 4.609375 -43.21875 C 5.148438 -39.597656 5.308594 -35.953125 5.089844 -32.285156 C 4.882812 -28.835938 4.753906 -25.414062 4.710938 -22.019531 L 4.605469 -11.457031 C 4.582031 -7.917969 4.5 -4.390625 4.359375 -0.871094 L 4.355469 -0.832031 L 4.355469 -0.789062 C 4.363281 -0.914062 4.347656 -1.054688 4.304688 -1.210938 C 4.226562 -1.515625 4.074219 -1.785156 3.851562 -2.023438 C 3.628906 -2.265625 3.371094 -2.4375 3.074219 -2.535156 C 2.917969 -2.589844 2.777344 -2.617188 2.652344 -2.617188 L 40.394531 -2.617188 C 39.855469 -2.617188 39.378906 -2.40625 38.960938 -1.988281 C 38.542969 -1.570312 38.335938 -1.09375 38.335938 -0.558594 L 40.953125 -0.558594 L 38.335938 -0.457031 L 38.300781 -1.363281 C 38.28125 -1.957031 38.246094 -2.675781 38.199219 -3.519531 C 38.152344 -4.402344 38.117188 -5.222656 38.09375 -5.988281 C 38.066406 -6.757812 38.054688 -7.34375 38.054688 -7.742188 Z M 38.054688 -11.582031 "/></g></g></g></g><g fill="#ffffff" fill-opacity="1"><g transform="translate(1.49653, 56.672624)"><g><path d="M 40.671875 -11.578125 C 40.671875 -10.972656 40.671875 -10.3125 40.671875 -9.59375 C 40.671875 -8.875 40.671875 -8.257812 40.671875 -7.75 C 40.671875 -7.375 40.679688 -6.8125 40.703125 -6.0625 C 40.734375 -5.320312 40.769531 -4.519531 40.8125 -3.65625 C 40.851562 -2.800781 40.882812 -2.070312 40.90625 -1.46875 C 40.9375 -0.863281 40.953125 -0.5625 40.953125 -0.5625 C 40.953125 -0.1875 40.765625 0 40.390625 0 L 2.65625 0 C 2 0 1.695312 -0.328125 1.75 -0.984375 C 1.882812 -4.460938 1.960938 -7.957031 1.984375 -11.46875 C 2.003906 -14.988281 2.039062 -18.515625 2.09375 -22.046875 C 2.132812 -25.484375 2.257812 -28.945312 2.46875 -32.4375 C 2.6875 -35.925781 2.535156 -39.394531 2.015625 -42.84375 C 1.972656 -43.113281 2.046875 -43.351562 2.234375 -43.5625 C 2.421875 -43.769531 2.65625 -43.875 2.9375 -43.875 L 40.109375 -43.875 C 40.390625 -43.875 40.578125 -43.738281 40.671875 -43.46875 C 40.671875 -43.414062 40.660156 -43.203125 40.640625 -42.828125 C 40.617188 -42.460938 40.582031 -42.09375 40.53125 -41.71875 C 40.53125 -41.488281 40.503906 -40.953125 40.453125 -40.109375 C 40.410156 -39.273438 40.378906 -38.40625 40.359375 -37.5 C 40.335938 -36.59375 40.328125 -35.90625 40.328125 -35.4375 C 40.328125 -34.976562 40.347656 -34.410156 40.390625 -33.734375 C 40.441406 -33.054688 40.5 -32.445312 40.5625 -31.90625 C 40.632812 -31.375 40.671875 -31.109375 40.671875 -31.109375 C 40.671875 -30.742188 40.460938 -30.5625 40.046875 -30.5625 C 40.046875 -30.5625 39.59375 -30.570312 38.6875 -30.59375 C 37.78125 -30.613281 36.628906 -30.625 35.234375 -30.625 C 33.835938 -30.625 32.359375 -30.625 30.796875 -30.625 C 29.242188 -30.625 27.800781 -30.597656 26.46875 -30.546875 C 25.144531 -30.503906 24.113281 -30.4375 23.375 -30.34375 C 22.675781 -30.25 21.960938 -30.039062 21.234375 -29.71875 C 20.515625 -29.394531 20.109375 -28.8125 20.015625 -27.96875 C 19.972656 -27.457031 20.132812 -27.023438 20.5 -26.671875 C 20.875 -26.328125 21.273438 -26.066406 21.703125 -25.890625 C 21.929688 -25.835938 22.660156 -25.785156 23.890625 -25.734375 C 25.128906 -25.691406 26.609375 -25.671875 28.328125 -25.671875 C 30.046875 -25.671875 31.773438 -25.679688 33.515625 -25.703125 C 35.265625 -25.734375 36.742188 -25.75 37.953125 -25.75 C 39.160156 -25.75 39.859375 -25.75 40.046875 -25.75 C 40.460938 -25.75 40.671875 -25.5625 40.671875 -25.1875 L 40.671875 -19.390625 C 40.671875 -18.878906 40.671875 -18.4375 40.671875 -18.0625 C 40.671875 -17.695312 40.671875 -17.304688 40.671875 -16.890625 C 40.671875 -16.515625 40.460938 -16.328125 40.046875 -16.328125 C 39.253906 -16.328125 38.148438 -16.335938 36.734375 -16.359375 C 35.316406 -16.378906 33.847656 -16.410156 32.328125 -16.453125 C 30.816406 -16.503906 29.457031 -16.539062 28.25 -16.5625 C 27.039062 -16.59375 26.226562 -16.609375 25.8125 -16.609375 C 25.34375 -16.554688 24.769531 -16.53125 24.09375 -16.53125 C 23.425781 -16.53125 22.789062 -16.4375 22.1875 -16.25 C 21.582031 -16.0625 21.140625 -15.691406 20.859375 -15.140625 C 20.390625 -14.253906 20.457031 -13.519531 21.0625 -12.9375 C 21.664062 -12.351562 22.34375 -11.972656 23.09375 -11.796875 C 23.5625 -11.703125 24.515625 -11.65625 25.953125 -11.65625 C 27.390625 -11.65625 29.023438 -11.6875 30.859375 -11.75 C 32.703125 -11.820312 34.472656 -11.890625 36.171875 -11.953125 C 37.867188 -12.023438 39.160156 -12.085938 40.046875 -12.140625 C 40.460938 -12.140625 40.671875 -11.953125 40.671875 -11.578125 Z M 40.671875 -11.578125 "/></g></g></g></g></g><g transform="matrix(1, 0, 0, 1, 235, 157)"><g clip-path="url(#ed47b4e696)"><g fill="#000000" fill-opacity="1"><g transform="translate(2.043041, 56.672624)"><g><path d="M 43.847656 -19.953125 C 43.847656 -18.824219 43.835938 -17.449219 43.8125 -15.832031 C 43.789062 -14.242188 43.777344 -12.578125 43.777344 -10.847656 C 43.777344 -9.089844 43.765625 -7.4375 43.742188 -5.890625 C 43.71875 -4.367188 43.707031 -3.089844 43.707031 -2.058594 C 43.707031 -1.566406 43.710938 -1.183594 43.722656 -0.910156 C 43.726562 -0.796875 43.730469 -0.714844 43.738281 -0.65625 C 43.734375 -0.695312 43.71875 -0.757812 43.699219 -0.84375 L 43.777344 -0.53125 L 43.777344 -0.210938 C 43.777344 0.386719 43.617188 0.925781 43.300781 1.398438 C 43.035156 1.800781 42.683594 2.109375 42.253906 2.328125 C 41.867188 2.519531 41.457031 2.617188 41.019531 2.617188 L 23.023438 2.617188 C 22.253906 2.617188 21.601562 2.347656 21.066406 1.816406 C 20.535156 1.28125 20.265625 0.628906 20.265625 -0.140625 L 22.882812 -0.140625 L 20.402344 0.6875 C 20.203125 0.0976562 20.019531 -0.492188 19.847656 -1.082031 C 19.695312 -1.609375 19.53125 -2.132812 19.355469 -2.660156 L 21.835938 -3.488281 L 19.375 -2.601562 C 18.902344 -3.914062 18.523438 -5.429688 18.242188 -7.144531 C 18.035156 -8.40625 17.75 -9.375 17.382812 -10.039062 L 17.332031 -10.128906 L 17.292969 -10.21875 C 17.34375 -10.105469 17.421875 -9.992188 17.527344 -9.875 C 17.738281 -9.632812 18.003906 -9.453125 18.316406 -9.335938 C 18.671875 -9.199219 19.03125 -9.164062 19.398438 -9.222656 C 19.613281 -9.257812 19.808594 -9.324219 19.972656 -9.421875 C 20.195312 -9.550781 20.367188 -9.734375 20.492188 -9.976562 C 20.574219 -10.136719 20.617188 -10.277344 20.617188 -10.394531 L 20.617188 -10.3125 L 20.609375 -10.230469 C 20.523438 -8.828125 20.511719 -7.21875 20.578125 -5.398438 L 20.753906 -0.253906 L 20.753906 -0.210938 C 20.753906 0.386719 20.597656 0.925781 20.28125 1.398438 C 20.011719 1.800781 19.660156 2.109375 19.230469 2.328125 C 18.84375 2.519531 18.433594 2.617188 18 2.617188 L 1.941406 2.546875 C 1.179688 2.546875 0.53125 2.28125 0 1.746094 C -0.535156 1.210938 -0.800781 0.558594 -0.800781 -0.210938 C -0.800781 -4.089844 -0.753906 -7.949219 -0.664062 -11.785156 C -0.570312 -15.578125 -0.523438 -19.390625 -0.523438 -23.230469 C -0.523438 -24.523438 -0.535156 -26.046875 -0.558594 -27.800781 C -0.582031 -29.582031 -0.59375 -31.394531 -0.59375 -33.242188 C -0.59375 -35.066406 -0.605469 -36.773438 -0.628906 -38.367188 L -0.699219 -42.230469 L -0.734375 -43.710938 L -0.734375 -43.742188 C -0.734375 -44.511719 -0.464844 -45.164062 0.0703125 -45.695312 C 0.601562 -46.230469 1.253906 -46.496094 2.023438 -46.496094 L 19.535156 -46.496094 C 20.28125 -46.496094 20.917969 -46.230469 21.453125 -45.695312 C 21.675781 -45.472656 21.863281 -45.210938 22.011719 -44.910156 L 22.113281 -44.714844 L 22.175781 -44.503906 C 22.53125 -43.339844 22.855469 -41.953125 23.152344 -40.34375 C 23.425781 -38.859375 23.726562 -37.371094 24.042969 -35.886719 C 24.339844 -34.523438 24.664062 -33.40625 25.023438 -32.523438 L 25.070312 -32.414062 L 25.105469 -32.300781 C 25.070312 -32.417969 25.003906 -32.539062 24.914062 -32.667969 C 24.730469 -32.925781 24.492188 -33.128906 24.191406 -33.28125 C 23.875 -33.4375 23.546875 -33.507812 23.207031 -33.492188 C 23.019531 -33.484375 22.855469 -33.449219 22.714844 -33.390625 L 22.800781 -33.425781 L 22.890625 -33.457031 C 22.457031 -33.3125 22.132812 -33.046875 21.921875 -32.664062 C 21.867188 -32.566406 21.832031 -32.476562 21.808594 -32.394531 L 21.808594 -32.441406 L 21.8125 -32.480469 C 21.898438 -33.386719 21.953125 -34.503906 21.976562 -35.832031 C 22 -37.214844 22.011719 -38.617188 22.011719 -40.042969 L 22.011719 -43.671875 C 22.011719 -44.269531 22.167969 -44.804688 22.484375 -45.28125 C 22.753906 -45.683594 23.101562 -45.992188 23.535156 -46.207031 C 23.921875 -46.402344 24.332031 -46.496094 24.765625 -46.496094 L 41.160156 -46.496094 C 41.59375 -46.496094 42.007812 -46.402344 42.390625 -46.207031 C 42.824219 -45.992188 43.171875 -45.683594 43.441406 -45.28125 C 43.757812 -44.804688 43.917969 -44.269531 43.917969 -43.671875 L 43.917969 -43.53125 L 43.882812 -31.699219 L 43.847656 -19.945312 Z M 38.613281 -19.960938 L 38.648438 -31.714844 L 38.683594 -43.53125 L 38.683594 -43.671875 C 38.683594 -43.214844 38.820312 -42.78125 39.089844 -42.378906 C 39.332031 -42.011719 39.65625 -41.726562 40.050781 -41.527344 C 40.402344 -41.351562 40.773438 -41.265625 41.160156 -41.265625 L 24.765625 -41.265625 C 25.15625 -41.265625 25.523438 -41.351562 25.875 -41.527344 C 26.273438 -41.726562 26.59375 -42.011719 26.839844 -42.378906 C 27.109375 -42.78125 27.242188 -43.214844 27.242188 -43.671875 L 27.242188 -40.042969 C 27.242188 -38.589844 27.230469 -37.15625 27.207031 -35.746094 C 27.183594 -34.28125 27.121094 -33.027344 27.023438 -31.984375 L 24.417969 -32.230469 L 27.027344 -32.058594 C 26.980469 -31.316406 26.800781 -30.671875 26.496094 -30.125 C 26.050781 -29.320312 25.398438 -28.777344 24.546875 -28.492188 L 23.71875 -30.976562 L 24.726562 -28.558594 C 23.710938 -28.136719 22.753906 -28.148438 21.851562 -28.601562 C 21 -29.027344 20.414062 -29.75 20.101562 -30.765625 L 22.601562 -31.53125 L 20.183594 -30.542969 C 19.703125 -31.707031 19.289062 -33.121094 18.929688 -34.785156 C 18.597656 -36.320312 18.292969 -37.859375 18.007812 -39.394531 C 17.746094 -40.808594 17.46875 -42.003906 17.171875 -42.980469 L 19.671875 -43.742188 L 17.332031 -42.570312 C 17.4375 -42.363281 17.578125 -42.171875 17.753906 -41.996094 C 18.242188 -41.507812 18.835938 -41.265625 19.535156 -41.265625 L 2.023438 -41.265625 C 2.699219 -41.265625 3.28125 -41.507812 3.769531 -41.996094 C 4.257812 -42.484375 4.5 -43.066406 4.5 -43.742188 L 1.882812 -43.742188 L 4.5 -43.804688 L 4.535156 -42.324219 L 4.605469 -38.441406 C 4.628906 -36.824219 4.640625 -35.09375 4.640625 -33.242188 C 4.640625 -31.417969 4.652344 -29.625 4.675781 -27.871094 C 4.699219 -26.089844 4.710938 -24.546875 4.710938 -23.230469 C 4.710938 -19.351562 4.664062 -15.492188 4.570312 -11.65625 C 4.476562 -7.863281 4.429688 -4.046875 4.429688 -0.210938 C 4.429688 -0.886719 4.1875 -1.46875 3.699219 -1.953125 C 3.210938 -2.441406 2.632812 -2.6875 1.964844 -2.6875 L 18 -2.617188 C 17.609375 -2.617188 17.242188 -2.527344 16.890625 -2.351562 C 16.492188 -2.15625 16.171875 -1.871094 15.925781 -1.503906 C 15.65625 -1.097656 15.523438 -0.667969 15.523438 -0.210938 L 18.136719 -0.210938 L 15.523438 -0.121094 L 15.351562 -5.207031 C 15.277344 -7.199219 15.289062 -8.984375 15.386719 -10.558594 L 18 -10.394531 L 15.382812 -10.394531 C 15.382812 -11.117188 15.535156 -11.777344 15.835938 -12.367188 C 16.183594 -13.035156 16.6875 -13.566406 17.351562 -13.949219 C 18.289062 -14.492188 19.230469 -14.585938 20.175781 -14.226562 C 21.015625 -13.910156 21.640625 -13.292969 22.054688 -12.382812 L 19.671875 -11.300781 L 21.964844 -12.5625 C 22.621094 -11.371094 23.101562 -9.847656 23.40625 -7.992188 C 23.636719 -6.59375 23.933594 -5.386719 24.296875 -4.375 L 24.308594 -4.34375 L 24.316406 -4.316406 C 24.515625 -3.726562 24.699219 -3.136719 24.871094 -2.546875 C 25.023438 -2.019531 25.1875 -1.492188 25.363281 -0.96875 L 25.5 -0.5625 L 25.5 -0.140625 C 25.5 -0.816406 25.253906 -1.398438 24.765625 -1.886719 C 24.28125 -2.371094 23.699219 -2.617188 23.023438 -2.617188 L 41.019531 -2.617188 C 40.632812 -2.617188 40.261719 -2.527344 39.910156 -2.351562 C 39.515625 -2.15625 39.195312 -1.871094 38.949219 -1.503906 C 38.679688 -1.097656 38.542969 -0.667969 38.542969 -0.210938 L 41.160156 -0.210938 L 38.621094 0.425781 C 38.523438 0.03125 38.472656 -0.796875 38.472656 -2.058594 C 38.472656 -3.117188 38.484375 -4.421875 38.507812 -5.96875 C 38.53125 -7.492188 38.542969 -9.117188 38.542969 -10.847656 C 38.542969 -12.605469 38.554688 -14.292969 38.578125 -15.910156 C 38.601562 -17.5 38.613281 -18.847656 38.613281 -19.953125 Z M 38.613281 -19.960938 "/></g></g></g><g fill="#ffffff" fill-opacity="1"><g transform="translate(2.043041, 56.672624)"><g><path d="M 41.234375 -19.953125 C 41.234375 -18.835938 41.21875 -17.476562 41.1875 -15.875 C 41.164062 -14.269531 41.15625 -12.59375 41.15625 -10.84375 C 41.15625 -9.101562 41.144531 -7.460938 41.125 -5.921875 C 41.101562 -4.390625 41.09375 -3.097656 41.09375 -2.046875 C 41.09375 -1.003906 41.113281 -0.390625 41.15625 -0.203125 C 41.15625 -0.0664062 41.109375 0 41.015625 0 L 23.015625 0 C 22.929688 0 22.890625 -0.046875 22.890625 -0.140625 C 22.703125 -0.703125 22.523438 -1.257812 22.359375 -1.8125 C 22.191406 -2.375 22.019531 -2.929688 21.84375 -3.484375 C 21.414062 -4.648438 21.070312 -6.007812 20.8125 -7.5625 C 20.5625 -9.125 20.179688 -10.367188 19.671875 -11.296875 C 19.441406 -11.804688 19.101562 -11.929688 18.65625 -11.671875 C 18.21875 -11.421875 18 -10.992188 18 -10.390625 C 17.90625 -8.898438 17.890625 -7.203125 17.953125 -5.296875 C 18.023438 -3.390625 18.085938 -1.691406 18.140625 -0.203125 C 18.140625 -0.0664062 18.09375 0 18 0 L 1.953125 -0.0625 C 1.859375 -0.0625 1.8125 -0.109375 1.8125 -0.203125 C 1.8125 -4.066406 1.859375 -7.90625 1.953125 -11.71875 C 2.046875 -15.53125 2.09375 -19.367188 2.09375 -23.234375 C 2.09375 -24.535156 2.078125 -26.066406 2.046875 -27.828125 C 2.023438 -29.597656 2.015625 -31.398438 2.015625 -33.234375 C 2.015625 -35.078125 2.003906 -36.800781 1.984375 -38.40625 C 1.960938 -40.007812 1.941406 -41.300781 1.921875 -42.28125 C 1.898438 -43.257812 1.890625 -43.75 1.890625 -43.75 C 1.890625 -43.832031 1.929688 -43.875 2.015625 -43.875 L 19.53125 -43.875 C 19.582031 -43.875 19.628906 -43.832031 19.671875 -43.75 C 19.992188 -42.675781 20.296875 -41.382812 20.578125 -39.875 C 20.859375 -38.363281 21.160156 -36.847656 21.484375 -35.328125 C 21.804688 -33.816406 22.179688 -32.550781 22.609375 -31.53125 C 22.796875 -30.925781 23.164062 -30.738281 23.71875 -30.96875 C 24.132812 -31.113281 24.367188 -31.535156 24.421875 -32.234375 C 24.515625 -33.210938 24.570312 -34.394531 24.59375 -35.78125 C 24.613281 -37.175781 24.625 -38.59375 24.625 -40.03125 C 24.625 -41.476562 24.625 -42.691406 24.625 -43.671875 C 24.625 -43.804688 24.671875 -43.875 24.765625 -43.875 L 41.15625 -43.875 C 41.25 -43.875 41.296875 -43.804688 41.296875 -43.671875 C 41.296875 -43.628906 41.296875 -43.582031 41.296875 -43.53125 C 41.296875 -39.582031 41.285156 -35.640625 41.265625 -31.703125 C 41.242188 -27.773438 41.234375 -23.859375 41.234375 -19.953125 Z M 41.234375 -19.953125 "/></g></g></g></g></g><g transform="matrix(1, 0, 0, 1, 209, 157)"><g clip-path="url(#b2383a133a)"><g clip-path="url(#828acc1bac)"><g fill="#000000" fill-opacity="1"><g transform="translate(1.171875, 56.672624)"><g><path d="M 43.078125 -30.347656 L 43.078125 -16.464844 C 43.078125 -14.363281 42.8125 -12.523438 42.277344 -10.949219 C 41.789062 -9.511719 41.164062 -8.078125 40.398438 -6.648438 C 39.664062 -5.289062 38.757812 -4.089844 37.683594 -3.042969 C 36.664062 -2.050781 35.582031 -1.203125 34.445312 -0.496094 C 33.113281 0.324219 31.769531 1.015625 30.410156 1.578125 C 28.855469 2.222656 26.882812 2.546875 24.488281 2.546875 L 15.144531 2.546875 L 15.082031 2.542969 C 12.796875 2.433594 10.652344 1.859375 8.640625 0.828125 C 6.722656 -0.15625 5.15625 -1.257812 3.941406 -2.476562 C 3.222656 -3.191406 2.496094 -4.179688 1.753906 -5.441406 C 1.046875 -6.652344 0.453125 -7.914062 -0.0195312 -9.230469 C -0.542969 -10.679688 -0.800781 -11.996094 -0.800781 -13.183594 L -0.800781 -30.625 C -0.800781 -32.972656 -0.421875 -35.0625 0.339844 -36.898438 C 1.089844 -38.707031 1.996094 -40.167969 3.054688 -41.285156 C 4.800781 -43.140625 6.515625 -44.410156 8.195312 -45.085938 C 9.734375 -45.707031 11.570312 -46.148438 13.707031 -46.410156 L 14.023438 -43.8125 L 12.171875 -45.660156 C 12.621094 -46.109375 13.1875 -46.371094 13.875 -46.441406 C 14.011719 -46.457031 14.183594 -46.464844 14.382812 -46.472656 C 14.679688 -46.476562 15.089844 -46.476562 15.621094 -46.460938 C 16.574219 -46.4375 17.753906 -46.429688 19.148438 -46.429688 L 26.859375 -46.429688 C 28.957031 -46.429688 30.90625 -46.128906 32.710938 -45.527344 C 34.617188 -44.890625 36.34375 -43.832031 37.882812 -42.347656 C 39.429688 -40.910156 40.683594 -39.082031 41.644531 -36.863281 C 42.601562 -34.648438 43.078125 -32.476562 43.078125 -30.347656 Z M 37.847656 -30.347656 C 37.847656 -31.753906 37.511719 -33.234375 36.839844 -34.785156 C 36.171875 -36.332031 35.308594 -37.597656 34.253906 -38.578125 C 33.28125 -39.515625 32.214844 -40.175781 31.054688 -40.5625 C 29.789062 -40.984375 28.390625 -41.195312 26.859375 -41.195312 L 19.148438 -41.195312 C 17.710938 -41.195312 16.492188 -41.207031 15.496094 -41.230469 C 15.046875 -41.242188 14.714844 -41.246094 14.5 -41.238281 C 14.460938 -41.238281 14.429688 -41.238281 14.40625 -41.238281 L 14.414062 -41.238281 C 14.960938 -41.292969 15.445312 -41.535156 15.871094 -41.960938 L 15.234375 -41.324219 L 14.339844 -41.214844 C 12.660156 -41.011719 11.265625 -40.683594 10.152344 -40.234375 C 9.183594 -39.84375 8.082031 -38.992188 6.851562 -37.6875 C 6.238281 -37.035156 5.675781 -36.105469 5.171875 -34.890625 C 4.675781 -33.699219 4.429688 -32.277344 4.429688 -30.625 L 4.429688 -13.183594 C 4.429688 -12.605469 4.585938 -11.878906 4.902344 -11 C 5.265625 -9.992188 5.722656 -9.019531 6.269531 -8.089844 C 6.78125 -7.214844 7.238281 -6.574219 7.640625 -6.175781 C 8.46875 -5.34375 9.601562 -4.5625 11.03125 -3.828125 C 12.371094 -3.140625 13.804688 -2.757812 15.335938 -2.683594 L 15.207031 -0.0703125 L 15.207031 -2.6875 L 24.488281 -2.6875 C 26.1875 -2.6875 27.492188 -2.875 28.402344 -3.253906 C 29.507812 -3.710938 30.601562 -4.277344 31.691406 -4.945312 C 32.503906 -5.449219 33.285156 -6.066406 34.035156 -6.792969 C 34.726562 -7.46875 35.308594 -8.242188 35.785156 -9.117188 C 36.414062 -10.292969 36.925781 -11.464844 37.324219 -12.628906 C 37.671875 -13.660156 37.847656 -14.9375 37.847656 -16.464844 Z M 20.894531 -17.789062 C 20.894531 -17.058594 20.9375 -16.480469 21.023438 -16.054688 C 21.050781 -15.917969 21.082031 -15.8125 21.109375 -15.746094 C 21.097656 -15.773438 21.066406 -15.816406 21.015625 -15.878906 C 20.980469 -15.921875 20.929688 -15.941406 20.859375 -15.941406 L 20.871094 -15.941406 C 20.847656 -15.9375 20.824219 -15.933594 20.792969 -15.925781 C 20.683594 -15.894531 20.570312 -15.839844 20.464844 -15.761719 C 20.257812 -15.613281 20.128906 -15.453125 20.082031 -15.28125 C 20.25 -15.890625 20.335938 -16.328125 20.335938 -16.605469 C 20.335938 -18.402344 20.371094 -20.292969 20.441406 -22.277344 C 20.511719 -24.167969 20.519531 -25.734375 20.476562 -26.976562 L 23.089844 -27.066406 L 20.484375 -26.839844 C 20.410156 -27.722656 20.28125 -28.445312 20.105469 -29.007812 C 20.179688 -28.773438 20.339844 -28.578125 20.582031 -28.421875 C 20.679688 -28.359375 20.773438 -28.316406 20.867188 -28.296875 L 20.859375 -28.289062 C 20.785156 -28.289062 20.722656 -28.285156 20.675781 -28.277344 C 20.667969 -28.277344 20.664062 -28.277344 20.664062 -28.277344 C 20.671875 -28.277344 20.683594 -28.28125 20.699219 -28.289062 C 20.859375 -28.347656 21.003906 -28.460938 21.132812 -28.621094 C 21.066406 -28.535156 21.023438 -28.425781 21 -28.292969 C 20.929688 -27.851562 20.894531 -27.511719 20.894531 -27.277344 Z M 15.660156 -17.789062 L 15.660156 -27.277344 C 15.660156 -27.789062 15.71875 -28.402344 15.835938 -29.121094 C 16 -30.152344 16.398438 -31.066406 17.027344 -31.863281 C 17.898438 -32.96875 19.175781 -33.523438 20.859375 -33.523438 C 21.835938 -33.523438 22.683594 -33.292969 23.402344 -32.828125 C 24.230469 -32.300781 24.792969 -31.546875 25.101562 -30.570312 C 25.390625 -29.644531 25.589844 -28.554688 25.699219 -27.296875 L 25.703125 -27.226562 L 25.707031 -27.160156 C 25.753906 -25.796875 25.742188 -24.105469 25.671875 -22.089844 C 25.601562 -20.167969 25.570312 -18.339844 25.570312 -16.605469 C 25.570312 -15.855469 25.421875 -14.945312 25.125 -13.878906 C 24.84375 -12.871094 24.308594 -12.082031 23.523438 -11.515625 C 22.773438 -10.976562 21.886719 -10.707031 20.859375 -10.707031 C 19.300781 -10.707031 18.019531 -11.308594 17.007812 -12.515625 C 16.109375 -13.582031 15.660156 -15.339844 15.660156 -17.789062 Z M 15.660156 -17.789062 "/></g></g></g></g><g fill="#ffffff" fill-opacity="1"><g transform="translate(1.171875, 56.672624)"><g><path d="M 40.46875 -30.34375 C 40.46875 -29.132812 40.46875 -27.671875 40.46875 -25.953125 C 40.46875 -24.234375 40.46875 -22.507812 40.46875 -20.78125 C 40.46875 -19.0625 40.46875 -17.625 40.46875 -16.46875 C 40.46875 -14.65625 40.242188 -13.097656 39.796875 -11.796875 C 39.359375 -10.492188 38.789062 -9.191406 38.09375 -7.890625 C 37.488281 -6.765625 36.742188 -5.769531 35.859375 -4.90625 C 34.972656 -4.050781 34.039062 -3.320312 33.0625 -2.71875 C 31.851562 -1.976562 30.632812 -1.347656 29.40625 -0.828125 C 28.175781 -0.316406 26.535156 -0.0625 24.484375 -0.0625 C 24.203125 -0.0625 23.582031 -0.0625 22.625 -0.0625 C 21.675781 -0.0625 20.644531 -0.0625 19.53125 -0.0625 C 18.414062 -0.0625 17.425781 -0.0625 16.5625 -0.0625 C 15.707031 -0.0625 15.253906 -0.0625 15.203125 -0.0625 C 13.296875 -0.15625 11.503906 -0.632812 9.828125 -1.5 C 8.160156 -2.363281 6.816406 -3.304688 5.796875 -4.328125 C 5.234375 -4.878906 4.632812 -5.691406 4 -6.765625 C 3.375 -7.835938 2.851562 -8.953125 2.4375 -10.109375 C 2.019531 -11.273438 1.8125 -12.300781 1.8125 -13.1875 C 1.8125 -13.832031 1.8125 -14.898438 1.8125 -16.390625 C 1.8125 -17.878906 1.8125 -19.53125 1.8125 -21.34375 C 1.8125 -23.15625 1.8125 -24.898438 1.8125 -26.578125 C 1.8125 -28.253906 1.8125 -29.601562 1.8125 -30.625 C 1.8125 -32.625 2.125 -34.378906 2.75 -35.890625 C 3.382812 -37.398438 4.117188 -38.597656 4.953125 -39.484375 C 6.441406 -41.066406 7.847656 -42.125 9.171875 -42.65625 C 10.492188 -43.195312 12.109375 -43.582031 14.015625 -43.8125 C 14.066406 -43.851562 14.578125 -43.863281 15.546875 -43.84375 C 16.523438 -43.820312 17.722656 -43.8125 19.140625 -43.8125 C 20.566406 -43.8125 21.988281 -43.8125 23.40625 -43.8125 C 24.820312 -43.8125 25.972656 -43.8125 26.859375 -43.8125 C 28.671875 -43.8125 30.34375 -43.554688 31.875 -43.046875 C 33.414062 -42.535156 34.8125 -41.675781 36.0625 -40.46875 C 37.363281 -39.257812 38.421875 -37.710938 39.234375 -35.828125 C 40.054688 -33.941406 40.46875 -32.113281 40.46875 -30.34375 Z M 18.28125 -17.796875 C 18.28125 -15.972656 18.523438 -14.769531 19.015625 -14.1875 C 19.503906 -13.613281 20.117188 -13.328125 20.859375 -13.328125 C 21.785156 -13.328125 22.363281 -13.742188 22.59375 -14.578125 C 22.832031 -15.421875 22.953125 -16.097656 22.953125 -16.609375 C 22.953125 -18.367188 22.984375 -20.222656 23.046875 -22.171875 C 23.117188 -24.128906 23.132812 -25.757812 23.09375 -27.0625 C 23 -28.132812 22.832031 -29.039062 22.59375 -29.78125 C 22.363281 -30.53125 21.785156 -30.90625 20.859375 -30.90625 C 20.023438 -30.90625 19.429688 -30.679688 19.078125 -30.234375 C 18.734375 -29.796875 18.515625 -29.285156 18.421875 -28.703125 C 18.328125 -28.128906 18.28125 -27.65625 18.28125 -27.28125 C 18.28125 -26.8125 18.28125 -26.050781 18.28125 -25 C 18.28125 -23.957031 18.28125 -22.785156 18.28125 -21.484375 C 18.28125 -20.179688 18.28125 -18.953125 18.28125 -17.796875 Z M 18.28125 -17.796875 "/></g></g></g></g></g><g transform="matrix(1, 0, 0, 1, 174, 157)"><g clip-path="url(#7813e0f303)"><g clip-path="url(#4e3c68f887)"><g fill="#000000" fill-opacity="1"><g transform="translate(1.380608, 56.672624)"><g><path d="M 43.636719 -9.277344 L 43.636719 -7.046875 C 43.636719 -6.089844 43.648438 -5.097656 43.671875 -4.070312 C 43.695312 -3.003906 43.707031 -2.101562 43.707031 -1.359375 L 43.707031 -0.277344 C 43.707031 0.394531 43.515625 0.988281 43.132812 1.5 C 42.84375 1.886719 42.476562 2.175781 42.035156 2.375 C 41.671875 2.535156 41.285156 2.617188 40.882812 2.617188 L 1.953125 2.617188 C 1.136719 2.617188 0.453125 2.335938 -0.105469 1.78125 C -0.664062 1.222656 -0.941406 0.535156 -0.941406 -0.277344 C -0.941406 -1.273438 -0.90625 -2.277344 -0.832031 -3.296875 C -0.757812 -4.273438 -0.675781 -5.238281 -0.582031 -6.191406 C -0.402344 -7.972656 -0.300781 -9.964844 -0.277344 -12.164062 C -0.257812 -14.414062 -0.265625 -16.453125 -0.3125 -18.28125 L -0.3125 -18.417969 C -0.3125 -18.992188 -0.15625 -19.515625 0.160156 -19.992188 C 0.441406 -20.410156 0.8125 -20.738281 1.273438 -20.96875 L 1.375 -21.019531 L 1.480469 -21.058594 C 3.265625 -21.765625 5.054688 -22.445312 6.839844 -23.105469 C 8.632812 -23.765625 10.449219 -24.402344 12.289062 -25.015625 C 13.464844 -25.4375 14.824219 -26.023438 16.367188 -26.769531 C 17.875 -27.503906 19.410156 -28.410156 20.972656 -29.496094 C 20.847656 -29.414062 20.734375 -29.253906 20.632812 -29.023438 C 20.515625 -28.742188 20.484375 -28.476562 20.542969 -28.222656 L 23.089844 -28.8125 L 20.578125 -28.09375 C 20.640625 -27.871094 20.792969 -27.667969 21.03125 -27.480469 C 21.296875 -27.273438 21.5625 -27.171875 21.835938 -27.171875 L 21.835938 -29.789062 L 21.929688 -27.175781 C 19.378906 -27.082031 17.175781 -26.949219 15.324219 -26.765625 C 13.394531 -26.578125 11.453125 -26.414062 9.503906 -26.273438 C 7.523438 -26.128906 5.234375 -26.035156 2.628906 -25.988281 C 1.78125 -25.988281 1.078125 -26.265625 0.523438 -26.824219 C -0.0351562 -27.378906 -0.3125 -28.066406 -0.3125 -28.882812 C -0.3125 -30.800781 -0.347656 -32.652344 -0.417969 -34.433594 C -0.488281 -36.28125 -0.523438 -38.171875 -0.523438 -40.113281 L 2.09375 -40.113281 L -0.519531 -40.007812 L -0.664062 -43.550781 L -0.664062 -43.601562 C -0.664062 -44.277344 -0.472656 -44.871094 -0.0859375 -45.382812 C 0.203125 -45.769531 0.566406 -46.058594 1.007812 -46.253906 C 1.371094 -46.417969 1.757812 -46.496094 2.164062 -46.496094 L 40.8125 -46.496094 C 41.628906 -46.496094 42.3125 -46.21875 42.871094 -45.660156 C 43.429688 -45.105469 43.707031 -44.417969 43.707031 -43.601562 L 43.707031 -25.601562 C 43.707031 -24.789062 43.429688 -24.101562 42.871094 -23.542969 L 42.628906 -23.300781 L 42.332031 -23.128906 C 40.527344 -22.085938 38.886719 -21.179688 37.40625 -20.417969 C 35.957031 -19.667969 34.550781 -18.953125 33.191406 -18.273438 C 31.832031 -17.597656 30.382812 -16.882812 28.835938 -16.132812 C 27.3125 -15.394531 25.578125 -14.539062 23.632812 -13.566406 L 22.464844 -15.90625 L 23.703125 -13.601562 C 23.957031 -13.738281 24.148438 -13.976562 24.289062 -14.3125 C 24.425781 -14.65625 24.449219 -14.964844 24.363281 -15.242188 C 24.304688 -15.417969 24.175781 -15.585938 23.96875 -15.75 C 23.691406 -15.972656 23.402344 -16.082031 23.089844 -16.082031 C 24.8125 -16.082031 26.3125 -16.113281 27.59375 -16.183594 C 28.867188 -16.25 30.09375 -16.347656 31.273438 -16.484375 C 32.496094 -16.621094 33.847656 -16.78125 35.324219 -16.96875 C 36.84375 -17.15625 38.664062 -17.347656 40.789062 -17.535156 L 40.90625 -17.546875 L 41.019531 -17.546875 C 41.425781 -17.546875 41.8125 -17.464844 42.175781 -17.304688 C 42.617188 -17.105469 42.980469 -16.816406 43.269531 -16.429688 C 43.65625 -15.917969 43.847656 -15.324219 43.847656 -14.648438 L 41.230469 -14.648438 L 43.84375 -14.753906 C 43.898438 -13.429688 43.867188 -12.371094 43.75 -11.582031 C 43.675781 -11.082031 43.636719 -10.3125 43.636719 -9.277344 Z M 38.40625 -9.277344 C 38.40625 -10.570312 38.460938 -11.59375 38.574219 -12.347656 C 38.640625 -12.8125 38.65625 -13.546875 38.617188 -14.546875 L 38.613281 -14.597656 L 38.613281 -14.648438 C 38.613281 -14.160156 38.769531 -13.707031 39.085938 -13.289062 C 39.339844 -12.949219 39.660156 -12.695312 40.050781 -12.519531 C 40.363281 -12.382812 40.6875 -12.3125 41.019531 -12.3125 L 41.019531 -14.929688 L 41.253906 -12.324219 C 39.191406 -12.140625 37.429688 -11.957031 35.972656 -11.773438 C 34.476562 -11.589844 33.105469 -11.425781 31.863281 -11.285156 C 30.578125 -11.136719 29.246094 -11.027344 27.867188 -10.957031 C 26.496094 -10.882812 24.90625 -10.847656 23.089844 -10.847656 C 22.175781 -10.847656 21.378906 -11.121094 20.699219 -11.664062 C 20.085938 -12.15625 19.644531 -12.816406 19.378906 -13.640625 C 19.082031 -14.566406 19.101562 -15.445312 19.4375 -16.277344 C 19.773438 -17.105469 20.367188 -17.75 21.222656 -18.210938 L 21.257812 -18.226562 L 21.292969 -18.246094 C 23.257812 -19.226562 25.011719 -20.09375 26.554688 -20.839844 C 28.078125 -21.582031 29.511719 -22.285156 30.851562 -22.957031 C 32.191406 -23.625 33.574219 -24.328125 35.007812 -25.066406 C 36.410156 -25.792969 37.980469 -26.65625 39.710938 -27.65625 L 41.019531 -25.394531 L 39.171875 -27.242188 C 38.707031 -26.78125 38.472656 -26.234375 38.472656 -25.601562 L 38.472656 -43.601562 C 38.472656 -42.972656 38.707031 -42.425781 39.171875 -41.960938 C 39.636719 -41.496094 40.183594 -41.265625 40.8125 -41.265625 L 2.164062 -41.265625 C 2.496094 -41.265625 2.820312 -41.335938 3.132812 -41.472656 C 3.523438 -41.644531 3.84375 -41.902344 4.097656 -42.242188 C 4.414062 -42.660156 4.570312 -43.113281 4.570312 -43.601562 L 1.953125 -43.601562 L 4.566406 -43.707031 L 4.710938 -40.167969 L 4.710938 -40.113281 C 4.710938 -38.242188 4.742188 -36.414062 4.8125 -34.632812 C 4.882812 -32.785156 4.917969 -30.867188 4.917969 -28.882812 C 4.917969 -29.511719 4.6875 -30.058594 4.222656 -30.523438 C 3.757812 -30.988281 3.195312 -31.21875 2.535156 -31.21875 C 5.042969 -31.265625 7.242188 -31.355469 9.125 -31.492188 C 11.03125 -31.628906 12.929688 -31.789062 14.816406 -31.972656 C 16.773438 -32.164062 19.085938 -32.308594 21.742188 -32.402344 L 21.789062 -32.40625 L 21.835938 -32.40625 C 22.761719 -32.40625 23.5625 -32.140625 24.246094 -31.609375 C 24.902344 -31.097656 25.359375 -30.40625 25.605469 -29.53125 L 25.625 -29.464844 L 25.640625 -29.402344 C 25.839844 -28.542969 25.773438 -27.730469 25.445312 -26.960938 C 25.136719 -26.242188 24.640625 -25.652344 23.957031 -25.199219 C 22.171875 -23.957031 20.402344 -22.914062 18.652344 -22.0625 C 16.941406 -21.230469 15.371094 -20.5625 13.941406 -20.050781 C 12.15625 -19.457031 10.390625 -18.835938 8.648438 -18.195312 C 6.898438 -17.550781 5.152344 -16.882812 3.402344 -16.195312 L 2.441406 -18.625 L 3.613281 -16.285156 C 3.980469 -16.472656 4.28125 -16.738281 4.515625 -17.089844 C 4.785156 -17.492188 4.917969 -17.9375 4.917969 -18.417969 L 4.917969 -18.347656 L 2.300781 -18.347656 L 4.917969 -18.414062 C 4.964844 -16.523438 4.976562 -14.421875 4.953125 -12.113281 C 4.929688 -9.753906 4.820312 -7.609375 4.625 -5.667969 C 4.535156 -4.761719 4.457031 -3.84375 4.386719 -2.914062 C 4.324219 -2.023438 4.289062 -1.144531 4.289062 -0.277344 C 4.289062 -0.910156 4.058594 -1.457031 3.59375 -1.917969 C 3.128906 -2.382812 2.582031 -2.617188 1.953125 -2.617188 L 40.882812 -2.617188 C 40.546875 -2.617188 40.222656 -2.546875 39.910156 -2.410156 C 39.523438 -2.234375 39.199219 -1.980469 38.945312 -1.640625 C 38.632812 -1.222656 38.472656 -0.765625 38.472656 -0.277344 L 38.472656 -1.359375 C 38.472656 -2.0625 38.464844 -2.925781 38.441406 -3.953125 C 38.417969 -5.019531 38.40625 -6.050781 38.40625 -7.046875 Z M 38.40625 -9.277344 "/></g></g></g></g><g fill="#ffffff" fill-opacity="1"><g transform="translate(1.380608, 56.672624)"><g><path d="M 41.015625 -9.28125 C 41.015625 -8.769531 41.015625 -8.023438 41.015625 -7.046875 C 41.015625 -6.066406 41.023438 -5.050781 41.046875 -4 C 41.078125 -2.957031 41.09375 -2.078125 41.09375 -1.359375 C 41.09375 -0.640625 41.09375 -0.28125 41.09375 -0.28125 C 41.09375 -0.09375 41.019531 0 40.875 0 L 1.953125 0 C 1.765625 0 1.671875 -0.09375 1.671875 -0.28125 C 1.671875 -1.207031 1.707031 -2.144531 1.78125 -3.09375 C 1.851562 -4.050781 1.929688 -5 2.015625 -5.9375 C 2.203125 -7.789062 2.304688 -9.859375 2.328125 -12.140625 C 2.359375 -14.421875 2.347656 -16.488281 2.296875 -18.34375 L 2.296875 -18.421875 C 2.296875 -18.515625 2.34375 -18.582031 2.4375 -18.625 C 4.207031 -19.320312 5.972656 -19.992188 7.734375 -20.640625 C 9.503906 -21.296875 11.296875 -21.925781 13.109375 -22.53125 C 14.410156 -23 15.875 -23.628906 17.5 -24.421875 C 19.132812 -25.210938 20.789062 -26.1875 22.46875 -27.34375 C 23.019531 -27.71875 23.226562 -28.207031 23.09375 -28.8125 C 22.90625 -29.46875 22.488281 -29.796875 21.84375 -29.796875 C 19.238281 -29.703125 16.976562 -29.5625 15.0625 -29.375 C 13.15625 -29.1875 11.238281 -29.019531 9.3125 -28.875 C 7.382812 -28.738281 5.140625 -28.648438 2.578125 -28.609375 C 2.390625 -28.609375 2.296875 -28.703125 2.296875 -28.890625 C 2.296875 -30.835938 2.257812 -32.71875 2.1875 -34.53125 C 2.125 -36.34375 2.09375 -38.203125 2.09375 -40.109375 C 2.039062 -41.367188 1.992188 -42.535156 1.953125 -43.609375 C 1.953125 -43.785156 2.019531 -43.875 2.15625 -43.875 L 40.8125 -43.875 C 41 -43.875 41.09375 -43.785156 41.09375 -43.609375 C 41.09375 -43.609375 41.09375 -43.164062 41.09375 -42.28125 C 41.09375 -41.394531 41.09375 -40.265625 41.09375 -38.890625 C 41.09375 -37.523438 41.09375 -36.082031 41.09375 -34.5625 C 41.09375 -33.050781 41.09375 -31.609375 41.09375 -30.234375 C 41.09375 -28.867188 41.09375 -27.753906 41.09375 -26.890625 C 41.09375 -26.035156 41.09375 -25.609375 41.09375 -25.609375 C 41.09375 -25.515625 41.066406 -25.441406 41.015625 -25.390625 C 39.253906 -24.367188 37.648438 -23.484375 36.203125 -22.734375 C 34.765625 -21.992188 33.367188 -21.285156 32.015625 -20.609375 C 30.671875 -19.941406 29.226562 -19.234375 27.6875 -18.484375 C 26.15625 -17.742188 24.414062 -16.882812 22.46875 -15.90625 C 21.863281 -15.582031 21.664062 -15.09375 21.875 -14.4375 C 22.082031 -13.789062 22.488281 -13.46875 23.09375 -13.46875 C 24.863281 -13.46875 26.410156 -13.5 27.734375 -13.5625 C 29.054688 -13.632812 30.332031 -13.738281 31.5625 -13.875 C 32.800781 -14.019531 34.160156 -14.1875 35.640625 -14.375 C 37.128906 -14.5625 38.921875 -14.75 41.015625 -14.9375 C 41.160156 -14.9375 41.234375 -14.84375 41.234375 -14.65625 C 41.273438 -13.488281 41.25 -12.585938 41.15625 -11.953125 C 41.0625 -11.328125 41.015625 -10.4375 41.015625 -9.28125 Z M 41.015625 -9.28125 "/></g></g></g></g></g><g clip-path="url(#c55f06e11f)"><g transform="matrix(1, 0, 0, 1, 121, 222)"><g clip-path="url(#8ac1b41aa4)"><g clip-path="url(#5ae2fd86cb)"><path fill="#000000" d="M 0.566406 0.777344 L 132.402344 0.777344 L 132.402344 22.496094 L 0.566406 22.496094 Z M 0.566406 0.777344 " fill-opacity="1" fill-rule="nonzero"/></g></g></g></g><g transform="matrix(1, 0, 0, 1, 123, 157)"><g clip-path="url(#eed7b882ef)"><g clip-path="url(#5794abe1c8)"><g fill="#000000" fill-opacity="1"><g transform="translate(1.749005, 56.672624)"><g><path d="M 43.496094 -20.511719 C 43.496094 -18.890625 43.414062 -17.203125 43.242188 -15.445312 C 43.058594 -13.574219 42.796875 -12.125 42.457031 -11.101562 L 42.4375 -11.042969 L 41.679688 -9.097656 C 41.09375 -7.585938 40.199219 -6.09375 39.003906 -4.625 L 38.953125 -4.566406 L 38.902344 -4.511719 C 38.277344 -3.828125 37.277344 -2.980469 35.910156 -1.972656 C 34.511719 -0.945312 33.113281 -0.136719 31.714844 0.457031 C 30.046875 1.132812 28.421875 1.628906 26.839844 1.9375 C 25.253906 2.25 24.097656 2.40625 23.371094 2.40625 L 23.371094 -0.210938 L 23.660156 2.390625 C 23.167969 2.445312 22.445312 2.484375 21.484375 2.511719 C 20.578125 2.535156 19.671875 2.546875 18.765625 2.546875 L 16.8125 2.546875 L 16.8125 -0.0703125 L 16.875 2.546875 L 15.375 2.582031 C 14.402344 2.605469 13.207031 2.617188 11.789062 2.617188 L 2.722656 2.617188 C 1.710938 2.617188 0.894531 2.269531 0.269531 1.574219 C -0.351562 0.886719 -0.609375 0.0429688 -0.511719 -0.957031 L -0.492188 -1.148438 L -0.445312 -1.332031 C -0.402344 -1.511719 -0.367188 -2.175781 -0.347656 -3.324219 C -0.324219 -4.65625 -0.3125 -6.1875 -0.3125 -7.917969 L -0.3125 -12.941406 C -0.3125 -14.503906 -0.335938 -15.726562 -0.378906 -16.613281 L -0.382812 -16.648438 L -0.382812 -16.683594 C -0.429688 -18.710938 -0.5 -20.738281 -0.589844 -22.765625 C -0.683594 -24.828125 -0.753906 -26.894531 -0.800781 -28.960938 L -0.800781 -41.101562 L -0.65625 -43.480469 L 1.953125 -43.324219 L -0.664062 -43.324219 C -0.664062 -44.230469 -0.359375 -44.988281 0.242188 -45.59375 C 0.847656 -46.195312 1.601562 -46.496094 2.511719 -46.496094 L 21.488281 -46.496094 L 21.488281 -41.265625 L 19.230469 -41.265625 L 19.230469 -46.496094 L 21.558594 -46.496094 C 24.394531 -46.496094 26.90625 -46.199219 29.085938 -45.601562 C 31.398438 -44.96875 33.746094 -43.675781 36.125 -41.714844 L 34.464844 -39.695312 L 36.074219 -41.757812 C 37.871094 -40.351562 39.265625 -38.660156 40.257812 -36.679688 C 41.15625 -34.882812 41.800781 -33.207031 42.195312 -31.65625 C 42.558594 -30.222656 42.792969 -29.222656 42.898438 -28.652344 C 43.003906 -28.0625 43.109375 -27.21875 43.207031 -26.121094 C 43.304688 -25.058594 43.378906 -23.992188 43.425781 -22.929688 C 43.472656 -21.867188 43.496094 -21.0625 43.496094 -20.511719 Z M 38.265625 -20.511719 C 38.265625 -20.984375 38.242188 -21.710938 38.199219 -22.695312 C 38.152344 -23.679688 38.085938 -24.660156 37.996094 -25.644531 C 37.910156 -26.589844 37.828125 -27.28125 37.75 -27.714844 C 37.667969 -28.167969 37.460938 -29.050781 37.125 -30.367188 C 36.824219 -31.554688 36.304688 -32.878906 35.578125 -34.339844 C 34.9375 -35.617188 34.03125 -36.714844 32.851562 -37.632812 L 32.828125 -37.652344 L 32.800781 -37.675781 C 30.996094 -39.160156 29.296875 -40.121094 27.703125 -40.554688 C 25.976562 -41.027344 23.925781 -41.265625 21.558594 -41.265625 L 19.230469 -41.265625 C 18.882812 -41.265625 18.550781 -41.332031 18.230469 -41.464844 C 17.910156 -41.597656 17.625 -41.785156 17.382812 -42.03125 C 17.136719 -42.277344 16.945312 -42.558594 16.8125 -42.878906 C 16.679688 -43.199219 16.617188 -43.535156 16.617188 -43.882812 C 16.617188 -44.226562 16.679688 -44.5625 16.8125 -44.882812 C 16.945312 -45.203125 17.136719 -45.484375 17.382812 -45.730469 C 17.625 -45.976562 17.910156 -46.164062 18.230469 -46.296875 C 18.550781 -46.429688 18.882812 -46.496094 19.230469 -46.496094 L 21.488281 -46.496094 L 21.488281 -41.265625 L 2.511719 -41.265625 C 3.046875 -41.265625 3.523438 -41.472656 3.941406 -41.890625 C 4.359375 -42.308594 4.570312 -42.785156 4.570312 -43.324219 L 4.570312 -43.242188 L 4.425781 -40.863281 L 1.8125 -41.019531 L 4.429688 -41.019531 L 4.429688 -29.023438 L 1.8125 -29.023438 L 4.429688 -29.082031 C 4.476562 -27.054688 4.542969 -25.027344 4.636719 -23 C 4.730469 -20.933594 4.800781 -18.867188 4.847656 -16.804688 L 2.234375 -16.742188 L 4.84375 -16.875 C 4.894531 -15.898438 4.917969 -14.589844 4.917969 -12.941406 L 4.917969 -7.917969 C 4.917969 -6.160156 4.90625 -4.597656 4.882812 -3.234375 C 4.855469 -1.6875 4.773438 -0.628906 4.632812 -0.0625 L 2.09375 -0.699219 L 4.695312 -0.4375 C 4.75 -0.972656 4.570312 -1.46875 4.160156 -1.925781 C 3.910156 -2.203125 3.613281 -2.398438 3.273438 -2.515625 C 3.082031 -2.582031 2.898438 -2.617188 2.722656 -2.617188 L 11.789062 -2.617188 C 13.164062 -2.617188 14.316406 -2.628906 15.253906 -2.652344 L 16.78125 -2.6875 L 18.765625 -2.6875 C 19.628906 -2.6875 20.488281 -2.699219 21.347656 -2.71875 C 22.160156 -2.742188 22.738281 -2.769531 23.082031 -2.808594 L 23.226562 -2.824219 L 23.371094 -2.824219 C 23.757812 -2.824219 24.578125 -2.949219 25.832031 -3.195312 C 27.085938 -3.441406 28.367188 -3.832031 29.675781 -4.363281 C 30.695312 -4.792969 31.742188 -5.402344 32.808594 -6.1875 C 33.902344 -6.996094 34.648438 -7.613281 35.046875 -8.046875 L 36.976562 -6.277344 L 34.945312 -7.929688 C 35.796875 -8.972656 36.414062 -9.996094 36.804688 -10.996094 L 37.535156 -12.878906 L 39.976562 -11.929688 L 37.492188 -12.757812 C 37.710938 -13.40625 37.890625 -14.472656 38.035156 -15.949219 C 38.1875 -17.539062 38.265625 -19.058594 38.265625 -20.511719 Z M 20.167969 -18.1875 C 20.238281 -18.566406 20.28125 -19.164062 20.300781 -19.980469 C 20.324219 -20.894531 20.324219 -21.828125 20.300781 -22.785156 C 20.28125 -23.734375 20.246094 -24.460938 20.207031 -24.96875 L 22.8125 -25.183594 L 20.214844 -24.886719 C 20.140625 -25.542969 20.042969 -26.054688 19.929688 -26.429688 C 19.890625 -26.546875 19.859375 -26.636719 19.828125 -26.695312 C 19.84375 -26.664062 19.882812 -26.617188 19.941406 -26.554688 C 19.902344 -26.59375 19.871094 -26.625 19.847656 -26.644531 C 19.851562 -26.640625 19.867188 -26.632812 19.890625 -26.617188 C 20.0625 -26.523438 20.269531 -26.476562 20.511719 -26.476562 C 20.769531 -26.476562 21.023438 -26.546875 21.277344 -26.695312 C 21.558594 -26.855469 21.769531 -27.070312 21.910156 -27.335938 C 21.964844 -27.433594 21.996094 -27.515625 22.015625 -27.582031 C 22.007812 -27.550781 22 -27.5 21.988281 -27.425781 C 21.957031 -27.171875 21.941406 -26.820312 21.941406 -26.371094 L 21.941406 -17.789062 C 21.941406 -17.113281 21.984375 -16.539062 22.070312 -16.070312 C 22.019531 -16.351562 21.851562 -16.617188 21.574219 -16.859375 C 21.261719 -17.128906 20.929688 -17.265625 20.582031 -17.265625 C 20.511719 -17.265625 20.417969 -17.238281 20.296875 -17.179688 C 20.070312 -17.074219 19.894531 -16.917969 19.761719 -16.710938 C 19.871094 -16.878906 20.007812 -17.386719 20.175781 -18.234375 Z M 25.308594 -17.207031 C 25.011719 -15.726562 24.640625 -14.628906 24.1875 -13.917969 C 23.777344 -13.269531 23.230469 -12.78125 22.539062 -12.453125 C 21.953125 -12.171875 21.300781 -12.035156 20.582031 -12.035156 C 19.625 -12.035156 18.8125 -12.328125 18.136719 -12.914062 C 17.5 -13.46875 17.09375 -14.203125 16.925781 -15.117188 C 16.78125 -15.902344 16.707031 -16.792969 16.707031 -17.789062 L 16.707031 -26.371094 C 16.707031 -27.921875 16.902344 -29.066406 17.296875 -29.800781 C 17.625 -30.414062 18.078125 -30.890625 18.664062 -31.226562 C 19.21875 -31.546875 19.835938 -31.707031 20.511719 -31.707031 C 21.675781 -31.707031 22.75 -31.191406 23.730469 -30.164062 C 24.597656 -29.25 25.160156 -27.691406 25.410156 -25.480469 L 25.417969 -25.441406 L 25.421875 -25.402344 C 25.472656 -24.792969 25.507812 -23.960938 25.53125 -22.910156 C 25.558594 -21.867188 25.558594 -20.847656 25.53125 -19.855469 C 25.507812 -18.765625 25.433594 -17.898438 25.316406 -17.253906 Z M 25.308594 -17.207031 "/></g></g></g></g><g fill="#ffffff" fill-opacity="1"><g transform="translate(1.749005, 56.672624)"><g><path d="M 40.875 -20.515625 C 40.875 -18.972656 40.789062 -17.363281 40.625 -15.6875 C 40.46875 -14.019531 40.25 -12.769531 39.96875 -11.9375 C 39.96875 -11.9375 39.722656 -11.304688 39.234375 -10.046875 C 38.753906 -8.785156 38 -7.53125 36.96875 -6.28125 C 36.457031 -5.71875 35.585938 -4.984375 34.359375 -4.078125 C 33.128906 -3.171875 31.910156 -2.460938 30.703125 -1.953125 C 29.210938 -1.347656 27.753906 -0.90625 26.328125 -0.625 C 24.910156 -0.34375 23.925781 -0.203125 23.375 -0.203125 C 22.957031 -0.160156 22.304688 -0.125 21.421875 -0.09375 C 20.535156 -0.0703125 19.648438 -0.0625 18.765625 -0.0625 C 17.878906 -0.0625 17.226562 -0.0625 16.8125 -0.0625 C 16.769531 -0.0625 16.269531 -0.0507812 15.3125 -0.03125 C 14.363281 -0.0078125 13.191406 0 11.796875 0 C 10.398438 0 9.003906 0 7.609375 0 C 6.210938 0 5.046875 0 4.109375 0 C 3.179688 0 2.71875 0 2.71875 0 C 2.25 0 2.039062 -0.234375 2.09375 -0.703125 C 2.1875 -1.066406 2.242188 -1.921875 2.265625 -3.265625 C 2.285156 -4.617188 2.296875 -6.164062 2.296875 -7.90625 C 2.296875 -9.65625 2.296875 -11.332031 2.296875 -12.9375 C 2.296875 -14.539062 2.273438 -15.8125 2.234375 -16.75 C 2.179688 -18.789062 2.109375 -20.832031 2.015625 -22.875 C 1.929688 -24.925781 1.863281 -26.972656 1.8125 -29.015625 L 1.8125 -41.015625 C 1.863281 -41.765625 1.910156 -42.535156 1.953125 -43.328125 C 1.953125 -43.691406 2.140625 -43.875 2.515625 -43.875 L 21.484375 -43.875 C 21.484375 -43.875 21.257812 -43.875 20.8125 -43.875 C 20.375 -43.875 19.96875 -43.875 19.59375 -43.875 C 19.226562 -43.875 19.140625 -43.875 19.328125 -43.875 C 19.515625 -43.875 20.257812 -43.875 21.5625 -43.875 C 24.164062 -43.875 26.441406 -43.609375 28.390625 -43.078125 C 30.347656 -42.546875 32.375 -41.421875 34.46875 -39.703125 C 35.957031 -38.535156 37.109375 -37.132812 37.921875 -35.5 C 38.734375 -33.875 39.3125 -32.375 39.65625 -31 C 40.007812 -29.632812 40.234375 -28.695312 40.328125 -28.1875 C 40.421875 -27.675781 40.515625 -26.90625 40.609375 -25.875 C 40.703125 -24.851562 40.769531 -23.832031 40.8125 -22.8125 C 40.851562 -21.789062 40.875 -21.023438 40.875 -20.515625 Z M 22.75 -17.71875 C 22.84375 -18.226562 22.898438 -18.957031 22.921875 -19.90625 C 22.941406 -20.863281 22.941406 -21.84375 22.921875 -22.84375 C 22.898438 -23.84375 22.863281 -24.625 22.8125 -25.1875 C 22.625 -26.8125 22.296875 -27.867188 21.828125 -28.359375 C 21.367188 -28.847656 20.929688 -29.09375 20.515625 -29.09375 C 20.097656 -29.09375 19.796875 -28.914062 19.609375 -28.5625 C 19.421875 -28.21875 19.328125 -27.488281 19.328125 -26.375 L 19.328125 -17.796875 C 19.328125 -16.953125 19.382812 -16.21875 19.5 -15.59375 C 19.613281 -14.96875 19.972656 -14.65625 20.578125 -14.65625 C 21.234375 -14.65625 21.695312 -14.875 21.96875 -15.3125 C 22.25 -15.75 22.507812 -16.550781 22.75 -17.71875 Z M 22.75 -17.71875 "/></g></g></g></g></g><g transform="matrix(1, 0, 0, 1, 103, 157)"><g clip-path="url(#fe145b921c)"><g clip-path="url(#6e2894ae7a)"><g fill="#000000" fill-opacity="1"><g transform="translate(1.493565, 56.672624)"><g><path d="M 2.09375 -46.496094 L 21.417969 -46.496094 C 22.441406 -46.496094 23.273438 -46.144531 23.921875 -45.441406 C 24.507812 -44.800781 24.800781 -44 24.800781 -43.042969 L 24.800781 -42.910156 L 24.789062 -42.773438 C 24.65625 -41.507812 24.578125 -39.726562 24.558594 -37.4375 C 24.535156 -35.074219 24.523438 -32.511719 24.523438 -29.753906 C 24.523438 -27.003906 24.546875 -24.320312 24.589844 -21.707031 L 24.695312 -14.757812 C 24.71875 -12.792969 24.753906 -11.4375 24.796875 -10.6875 L 24.800781 -10.609375 L 24.800781 -10.535156 C 24.800781 -8.957031 24.847656 -7.390625 24.9375 -5.835938 C 25.027344 -4.257812 25.140625 -2.664062 25.28125 -1.0625 C 25.367188 -0.015625 25.089844 0.855469 24.445312 1.558594 C 23.796875 2.265625 22.953125 2.617188 21.90625 2.617188 L 2.164062 2.617188 C 1.738281 2.617188 1.339844 2.53125 0.960938 2.359375 C 0.4375 2.121094 0.0234375 1.753906 -0.273438 1.257812 C -0.65625 0.621094 -0.769531 -0.0859375 -0.613281 -0.863281 L 1.953125 -0.347656 L -0.632812 -0.746094 C -0.554688 -1.246094 -0.496094 -2.253906 -0.453125 -3.773438 C -0.40625 -5.375 -0.382812 -7.175781 -0.382812 -9.175781 C -0.382812 -11.1875 -0.394531 -13.082031 -0.417969 -14.859375 C -0.441406 -16.617188 -0.476562 -17.945312 -0.519531 -18.84375 L -0.523438 -18.910156 L -0.523438 -18.976562 C -0.523438 -20.082031 -0.535156 -21.535156 -0.558594 -23.335938 L -0.628906 -29.199219 L -0.699219 -35.304688 L -0.765625 -40.496094 C -0.789062 -41.996094 -0.800781 -43.03125 -0.800781 -43.601562 L -0.800781 -44.6875 L 1.007812 -46.496094 Z M 2.09375 -41.265625 L 2.09375 -43.882812 L 3.941406 -42.03125 L 3.664062 -41.753906 L 1.8125 -43.601562 L 4.429688 -43.601562 C 4.429688 -43.058594 4.441406 -42.046875 4.464844 -40.566406 L 4.535156 -35.363281 L 4.605469 -29.261719 L 4.675781 -23.40625 C 4.699219 -21.578125 4.710938 -20.101562 4.710938 -18.976562 L 2.09375 -18.976562 L 4.707031 -19.105469 C 4.753906 -18.144531 4.789062 -16.75 4.8125 -14.929688 C 4.835938 -13.125 4.847656 -11.207031 4.847656 -9.175781 C 4.847656 -7.125 4.824219 -5.277344 4.777344 -3.621094 C 4.726562 -1.886719 4.648438 -0.664062 4.539062 0.0507812 L 4.53125 0.105469 L 4.519531 0.164062 C 4.628906 -0.378906 4.527344 -0.914062 4.214844 -1.433594 C 3.953125 -1.871094 3.589844 -2.195312 3.128906 -2.402344 C 2.816406 -2.546875 2.492188 -2.617188 2.164062 -2.617188 L 21.90625 -2.617188 C 21.753906 -2.617188 21.59375 -2.585938 21.417969 -2.527344 C 21.101562 -2.417969 20.824219 -2.234375 20.585938 -1.976562 C 20.351562 -1.722656 20.195312 -1.429688 20.113281 -1.105469 C 20.070312 -0.929688 20.054688 -0.765625 20.066406 -0.613281 C 19.925781 -2.265625 19.808594 -3.90625 19.710938 -5.535156 C 19.617188 -7.1875 19.570312 -8.855469 19.570312 -10.535156 L 22.183594 -10.535156 L 19.574219 -10.378906 C 19.523438 -11.210938 19.488281 -12.644531 19.464844 -14.679688 L 19.359375 -21.617188 C 19.3125 -24.257812 19.289062 -26.972656 19.289062 -29.753906 C 19.289062 -32.53125 19.300781 -35.109375 19.324219 -37.488281 C 19.347656 -39.941406 19.433594 -41.882812 19.582031 -43.3125 L 22.183594 -43.042969 L 19.570312 -43.042969 C 19.570312 -42.644531 19.734375 -42.265625 20.0625 -41.902344 C 20.453125 -41.476562 20.90625 -41.265625 21.417969 -41.265625 Z M 2.09375 -41.265625 "/></g></g></g></g><g fill="#ffffff" fill-opacity="1"><g transform="translate(1.493565, 56.672624)"><g><path d="M 2.09375 -43.875 L 21.421875 -43.875 C 21.929688 -43.875 22.1875 -43.597656 22.1875 -43.046875 C 22.039062 -41.691406 21.957031 -39.828125 21.9375 -37.453125 C 21.914062 -35.085938 21.90625 -32.519531 21.90625 -29.75 C 21.90625 -26.988281 21.925781 -24.289062 21.96875 -21.65625 C 22.019531 -19.03125 22.054688 -16.71875 22.078125 -14.71875 C 22.097656 -12.71875 22.132812 -11.320312 22.1875 -10.53125 C 22.1875 -8.90625 22.234375 -7.289062 22.328125 -5.6875 C 22.421875 -4.082031 22.535156 -2.46875 22.671875 -0.84375 C 22.722656 -0.28125 22.46875 0 21.90625 0 L 2.15625 0 C 1.976562 0 1.910156 -0.113281 1.953125 -0.34375 C 2.046875 -0.945312 2.113281 -2.0625 2.15625 -3.6875 C 2.207031 -5.320312 2.234375 -7.148438 2.234375 -9.171875 C 2.234375 -11.191406 2.21875 -13.097656 2.1875 -14.890625 C 2.164062 -16.679688 2.132812 -18.039062 2.09375 -18.96875 C 2.09375 -20.09375 2.078125 -21.5625 2.046875 -23.375 C 2.023438 -25.1875 2.003906 -27.140625 1.984375 -29.234375 C 1.960938 -31.328125 1.941406 -33.359375 1.921875 -35.328125 C 1.898438 -37.304688 1.875 -39.039062 1.84375 -40.53125 C 1.820312 -42.019531 1.8125 -43.046875 1.8125 -43.609375 C 1.863281 -43.648438 1.957031 -43.738281 2.09375 -43.875 Z M 2.09375 -43.875 "/></g></g></g></g></g><g transform="matrix(1, 0, 0, 1, 67, 157)"><g clip-path="url(#24b564ea16)"><g clip-path="url(#33a388619c)"><g fill="#000000" fill-opacity="1"><g transform="translate(1.461655, 56.672624)"><g><path d="M 43.566406 -14.300781 L 43.566406 -9.695312 C 43.566406 -7.902344 43.191406 -6.320312 42.445312 -4.953125 C 41.835938 -3.84375 41.296875 -2.996094 40.832031 -2.410156 C 39.976562 -1.3125 39 -0.457031 37.902344 0.15625 C 37.195312 0.550781 36.71875 0.835938 36.472656 1.011719 L 36.363281 1.089844 L 36.25 1.15625 C 34.9375 1.90625 33.53125 2.34375 32.03125 2.46875 C 30.839844 2.566406 30.046875 2.617188 29.648438 2.617188 L 2.300781 2.617188 C 1.324219 2.617188 0.535156 2.273438 -0.0664062 1.582031 C -0.664062 0.902344 -0.902344 0.078125 -0.78125 -0.882812 C -0.695312 -1.527344 -0.609375 -2.652344 -0.519531 -4.261719 C -0.429688 -5.898438 -0.371094 -7.707031 -0.347656 -9.691406 L -0.277344 -15.414062 C -0.257812 -17.152344 -0.265625 -18.457031 -0.3125 -19.332031 C -0.359375 -20.234375 -0.40625 -21.558594 -0.453125 -23.300781 C -0.5 -25.035156 -0.535156 -26.835938 -0.558594 -28.710938 L -0.628906 -33.730469 C -0.652344 -35.226562 -0.664062 -36.21875 -0.664062 -36.695312 C -0.664062 -37.367188 -0.652344 -38.222656 -0.628906 -39.265625 C -0.605469 -40.269531 -0.59375 -41.179688 -0.59375 -41.996094 L -0.59375 -43.394531 C -0.59375 -44.277344 -0.296875 -45.015625 0.296875 -45.609375 C 0.886719 -46.203125 1.625 -46.496094 2.511719 -46.496094 L 29.859375 -46.496094 C 31.042969 -46.496094 32.339844 -46.367188 33.753906 -46.105469 C 35.390625 -45.800781 36.691406 -45.304688 37.660156 -44.613281 L 36.136719 -42.484375 L 37.589844 -44.664062 C 38.25 -44.222656 38.964844 -43.65625 39.734375 -42.96875 C 40.710938 -42.09375 41.507812 -40.882812 42.125 -39.339844 C 42.714844 -37.867188 43.007812 -35.9375 43.007812 -33.554688 C 43.007812 -31.59375 42.71875 -29.980469 42.140625 -28.726562 C 41.660156 -27.6875 41.121094 -26.730469 40.527344 -25.863281 L 40.464844 -25.777344 C 39.714844 -24.78125 38.886719 -23.992188 37.972656 -23.402344 C 37.261719 -22.949219 36.578125 -22.542969 35.914062 -22.183594 L 35.824219 -22.136719 L 35.734375 -22.097656 L 35.726562 -22.097656 C 35.804688 -22.160156 35.875 -22.238281 35.941406 -22.339844 C 36.210938 -22.738281 36.335938 -23.1875 36.3125 -23.679688 C 36.296875 -24.113281 36.171875 -24.5 35.933594 -24.84375 C 35.832031 -24.988281 35.726562 -25.105469 35.613281 -25.195312 C 35.597656 -25.203125 35.589844 -25.210938 35.582031 -25.214844 C 35.59375 -25.207031 35.613281 -25.199219 35.632812 -25.1875 L 35.710938 -25.140625 C 36.066406 -24.933594 36.480469 -24.769531 36.953125 -24.644531 C 38.078125 -24.34375 39.242188 -23.621094 40.449219 -22.480469 L 40.503906 -22.429688 L 40.554688 -22.375 C 41.523438 -21.34375 42.265625 -20.191406 42.785156 -18.910156 C 43.304688 -17.621094 43.566406 -16.082031 43.566406 -14.300781 Z M 38.335938 -14.300781 C 38.335938 -15.402344 38.199219 -16.285156 37.933594 -16.949219 C 37.660156 -17.621094 37.265625 -18.234375 36.742188 -18.789062 L 38.648438 -20.582031 L 36.851562 -18.679688 C 36.289062 -19.214844 35.871094 -19.515625 35.601562 -19.585938 C 34.679688 -19.832031 33.835938 -20.179688 33.074219 -20.621094 L 34.394531 -22.882812 L 33.152344 -20.578125 C 32.480469 -20.941406 31.976562 -21.367188 31.632812 -21.863281 C 31.292969 -22.355469 31.109375 -22.890625 31.085938 -23.472656 C 31.058594 -24.109375 31.226562 -24.699219 31.589844 -25.242188 C 32.054688 -25.941406 32.730469 -26.488281 33.609375 -26.878906 L 34.671875 -24.488281 L 33.433594 -26.789062 C 33.976562 -27.085938 34.546875 -27.421875 35.140625 -27.804688 C 35.527344 -28.054688 35.90625 -28.425781 36.277344 -28.917969 L 38.371094 -27.347656 L 36.214844 -28.828125 C 36.640625 -29.453125 37.035156 -30.148438 37.390625 -30.921875 C 37.648438 -31.480469 37.777344 -32.359375 37.777344 -33.554688 C 37.777344 -35.265625 37.605469 -36.546875 37.265625 -37.398438 C 36.953125 -38.183594 36.609375 -38.742188 36.238281 -39.074219 C 35.660156 -39.59375 35.140625 -40.007812 34.6875 -40.308594 L 34.617188 -40.355469 C 34.28125 -40.597656 33.675781 -40.796875 32.800781 -40.960938 C 31.703125 -41.164062 30.722656 -41.265625 29.859375 -41.265625 L 2.511719 -41.265625 C 3.070312 -41.265625 3.566406 -41.480469 3.996094 -41.910156 C 4.425781 -42.339844 4.640625 -42.832031 4.640625 -43.394531 L 4.640625 -41.996094 C 4.640625 -41.140625 4.628906 -40.191406 4.605469 -39.148438 C 4.582031 -38.144531 4.570312 -37.328125 4.570312 -36.695312 C 4.570312 -36.246094 4.582031 -35.28125 4.605469 -33.800781 L 4.675781 -28.773438 C 4.695312 -26.925781 4.730469 -25.148438 4.777344 -23.441406 C 4.824219 -21.742188 4.871094 -20.460938 4.914062 -19.59375 C 4.964844 -18.609375 4.976562 -17.195312 4.953125 -15.351562 L 4.882812 -9.632812 C 4.859375 -7.570312 4.800781 -5.683594 4.707031 -3.972656 C 4.609375 -2.230469 4.511719 -0.984375 4.410156 -0.234375 C 4.484375 -0.824219 4.304688 -1.367188 3.871094 -1.863281 C 3.429688 -2.363281 2.90625 -2.617188 2.300781 -2.617188 L 29.648438 -2.617188 C 29.902344 -2.617188 30.550781 -2.660156 31.59375 -2.746094 C 32.324219 -2.808594 33.011719 -3.019531 33.652344 -3.386719 L 34.953125 -1.117188 L 33.429688 -3.246094 C 33.835938 -3.535156 34.476562 -3.921875 35.351562 -4.410156 C 35.832031 -4.679688 36.296875 -5.105469 36.746094 -5.679688 C 37.023438 -6.027344 37.390625 -6.621094 37.855469 -7.464844 C 38.175781 -8.050781 38.335938 -8.792969 38.335938 -9.695312 Z M 19.792969 -9.378906 C 19.917969 -9.535156 19.972656 -9.683594 19.960938 -9.828125 C 19.886719 -10.738281 19.847656 -11.625 19.847656 -12.488281 L 22.464844 -12.488281 L 19.851562 -12.34375 C 19.808594 -13.144531 19.738281 -14.019531 19.648438 -14.960938 C 19.640625 -15.070312 19.589844 -15.152344 19.496094 -15.207031 L 19.390625 -15.273438 L 19.289062 -15.347656 C 19.558594 -15.144531 19.875 -15.085938 20.242188 -15.164062 L 19.960938 -15.105469 L 19.671875 -15.105469 C 19.898438 -15.105469 20.128906 -15.152344 20.359375 -15.25 C 20.675781 -15.386719 20.941406 -15.589844 21.15625 -15.859375 C 21.398438 -16.171875 21.523438 -16.464844 21.523438 -16.742188 L 18.90625 -16.742188 L 21.511719 -16.960938 C 21.570312 -16.289062 21.570312 -15.398438 21.519531 -14.285156 L 21.378906 -11.21875 C 21.335938 -10.261719 21.335938 -9.433594 21.378906 -8.734375 C 21.390625 -8.542969 21.402344 -8.429688 21.410156 -8.390625 C 21.382812 -8.492188 21.328125 -8.605469 21.257812 -8.722656 C 21.078125 -9.007812 20.839844 -9.246094 20.53125 -9.429688 L 20.609375 -9.382812 L 20.683594 -9.328125 C 20.597656 -9.390625 20.480469 -9.433594 20.332031 -9.460938 C 20.140625 -9.492188 19.957031 -9.480469 19.789062 -9.421875 C 19.828125 -9.4375 19.851562 -9.449219 19.867188 -9.464844 L 21.835938 -7.742188 Z M 23.878906 -6.109375 L 23.84375 -6.0625 L 23.804688 -6.019531 C 23.167969 -5.292969 22.378906 -4.773438 21.441406 -4.460938 C 20.121094 -4.019531 18.867188 -4.214844 17.683594 -5.042969 L 19.183594 -7.1875 L 17.839844 -4.941406 C 17.144531 -5.359375 16.664062 -6.007812 16.398438 -6.886719 C 16.273438 -7.316406 16.191406 -7.828125 16.15625 -8.425781 C 16.101562 -9.308594 16.101562 -10.316406 16.152344 -11.457031 L 16.292969 -14.527344 C 16.332031 -15.414062 16.335938 -16.082031 16.296875 -16.527344 L 16.289062 -16.632812 L 16.289062 -16.742188 C 16.289062 -17.671875 16.539062 -18.457031 17.039062 -19.09375 C 17.691406 -19.921875 18.570312 -20.335938 19.671875 -20.335938 L 19.671875 -17.71875 L 19.105469 -20.273438 C 20.308594 -20.539062 21.414062 -20.292969 22.429688 -19.535156 L 20.859375 -17.441406 L 22.222656 -19.671875 C 23.804688 -18.707031 24.683594 -17.300781 24.859375 -15.457031 C 24.957031 -14.445312 25.027344 -13.503906 25.078125 -12.632812 L 25.082031 -12.558594 L 25.082031 -12.488281 C 25.082031 -11.769531 25.113281 -11.027344 25.175781 -10.261719 C 25.304688 -8.734375 24.871094 -7.347656 23.878906 -6.109375 Z M 19.90625 -28.25 C 19.980469 -28.277344 20.035156 -28.304688 20.070312 -28.332031 L 20.070312 -28.328125 C 20.0625 -28.316406 20.058594 -28.308594 20.054688 -28.300781 C 20.0625 -28.324219 20.070312 -28.359375 20.078125 -28.410156 C 20.203125 -29.394531 20.265625 -30.273438 20.265625 -31.042969 L 22.882812 -31.042969 L 20.269531 -30.90625 C 20.226562 -31.765625 20.167969 -32.597656 20.101562 -33.410156 C 20.078125 -33.675781 19.929688 -33.964844 19.65625 -34.273438 L 21.625 -36 L 19.699219 -34.230469 C 19.828125 -34.089844 20.027344 -33.992188 20.292969 -33.9375 C 20.589844 -33.878906 20.84375 -33.902344 21.050781 -34.007812 L 19.882812 -36.347656 L 21.152344 -34.058594 C 21.328125 -34.15625 21.480469 -34.308594 21.613281 -34.511719 C 21.785156 -34.78125 21.871094 -35.066406 21.871094 -35.371094 L 19.253906 -35.371094 L 21.871094 -35.441406 C 21.917969 -33.699219 21.90625 -32.136719 21.832031 -30.765625 L 21.589844 -26.296875 L 18.976562 -26.441406 L 21.59375 -26.441406 C 21.59375 -26.949219 21.40625 -27.398438 21.039062 -27.789062 C 20.773438 -28.066406 20.488281 -28.238281 20.175781 -28.304688 C 20.121094 -28.316406 20.042969 -28.300781 19.941406 -28.261719 Z M 21.777344 -23.363281 C 20.929688 -23.046875 20.039062 -22.984375 19.097656 -23.183594 C 18.347656 -23.339844 17.730469 -23.675781 17.246094 -24.183594 C 16.65625 -24.804688 16.359375 -25.558594 16.359375 -26.441406 L 16.359375 -26.511719 L 16.605469 -31.046875 C 16.671875 -32.277344 16.683594 -33.695312 16.640625 -35.296875 L 16.636719 -35.332031 L 16.636719 -35.371094 C 16.636719 -36.089844 16.828125 -36.75 17.210938 -37.34375 C 17.550781 -37.875 18.019531 -38.304688 18.613281 -38.632812 L 18.660156 -38.660156 L 18.710938 -38.6875 C 19.574219 -39.117188 20.441406 -39.246094 21.320312 -39.070312 C 22.167969 -38.898438 22.914062 -38.464844 23.554688 -37.765625 L 23.574219 -37.742188 L 23.597656 -37.722656 C 24.625 -36.542969 25.199219 -35.253906 25.316406 -33.84375 C 25.386719 -32.980469 25.445312 -32.09375 25.496094 -31.183594 L 25.5 -31.113281 L 25.5 -31.042969 C 25.5 -30.050781 25.421875 -28.953125 25.269531 -27.75 C 25.136719 -26.714844 24.765625 -25.820312 24.15625 -25.058594 C 23.5625 -24.316406 22.78125 -23.753906 21.8125 -23.375 Z M 21.777344 -23.363281 "/></g></g></g></g><g fill="#ffffff" fill-opacity="1"><g transform="translate(1.461655, 56.672624)"><g><path d="M 40.953125 -14.296875 L 40.953125 -9.703125 C 40.953125 -8.347656 40.679688 -7.179688 40.140625 -6.203125 C 39.609375 -5.234375 39.160156 -4.515625 38.796875 -4.046875 C 38.140625 -3.210938 37.414062 -2.570312 36.625 -2.125 C 35.832031 -1.6875 35.273438 -1.347656 34.953125 -1.109375 C 33.972656 -0.554688 32.925781 -0.234375 31.8125 -0.140625 C 30.695312 -0.046875 29.976562 0 29.65625 0 L 2.296875 0 C 1.929688 0 1.769531 -0.1875 1.8125 -0.5625 C 1.90625 -1.257812 2 -2.441406 2.09375 -4.109375 C 2.1875 -5.785156 2.242188 -7.632812 2.265625 -9.65625 C 2.285156 -11.6875 2.304688 -13.59375 2.328125 -15.375 C 2.359375 -17.164062 2.347656 -18.53125 2.296875 -19.46875 C 2.253906 -20.351562 2.207031 -21.65625 2.15625 -23.375 C 2.113281 -25.09375 2.078125 -26.878906 2.046875 -28.734375 C 2.023438 -30.597656 2.003906 -32.273438 1.984375 -33.765625 C 1.960938 -35.253906 1.953125 -36.234375 1.953125 -36.703125 C 1.953125 -37.347656 1.960938 -38.179688 1.984375 -39.203125 C 2.003906 -40.234375 2.015625 -41.164062 2.015625 -42 C 2.015625 -42.832031 2.015625 -43.296875 2.015625 -43.390625 C 2.015625 -43.710938 2.179688 -43.875 2.515625 -43.875 L 29.859375 -43.875 C 30.878906 -43.875 32.015625 -43.757812 33.265625 -43.53125 C 34.523438 -43.300781 35.484375 -42.953125 36.140625 -42.484375 C 36.691406 -42.109375 37.304688 -41.617188 37.984375 -41.015625 C 38.660156 -40.410156 39.226562 -39.523438 39.6875 -38.359375 C 40.15625 -37.203125 40.390625 -35.601562 40.390625 -33.5625 C 40.390625 -31.976562 40.179688 -30.734375 39.765625 -29.828125 C 39.347656 -28.921875 38.882812 -28.09375 38.375 -27.34375 C 37.8125 -26.601562 37.203125 -26.019531 36.546875 -25.59375 C 35.898438 -25.175781 35.273438 -24.804688 34.671875 -24.484375 C 34.253906 -24.296875 33.953125 -24.0625 33.765625 -23.78125 C 33.578125 -23.507812 33.785156 -23.210938 34.390625 -22.890625 C 34.953125 -22.554688 35.582031 -22.296875 36.28125 -22.109375 C 36.976562 -21.929688 37.769531 -21.421875 38.65625 -20.578125 C 39.394531 -19.785156 39.960938 -18.898438 40.359375 -17.921875 C 40.753906 -16.953125 40.953125 -15.742188 40.953125 -14.296875 Z M 21.84375 -7.75 C 22.394531 -8.445312 22.632812 -9.210938 22.5625 -10.046875 C 22.5 -10.878906 22.46875 -11.691406 22.46875 -12.484375 C 22.414062 -13.328125 22.34375 -14.234375 22.25 -15.203125 C 22.15625 -16.179688 21.691406 -16.925781 20.859375 -17.4375 C 20.484375 -17.71875 20.085938 -17.8125 19.671875 -17.71875 C 19.160156 -17.71875 18.90625 -17.394531 18.90625 -16.75 C 18.945312 -16.1875 18.945312 -15.40625 18.90625 -14.40625 C 18.863281 -13.40625 18.816406 -12.378906 18.765625 -11.328125 C 18.722656 -10.285156 18.722656 -9.367188 18.765625 -8.578125 C 18.816406 -7.785156 18.957031 -7.320312 19.1875 -7.1875 C 19.65625 -6.863281 20.128906 -6.78125 20.609375 -6.9375 C 21.097656 -7.101562 21.507812 -7.375 21.84375 -7.75 Z M 20.859375 -25.8125 C 21.929688 -26.226562 22.535156 -26.984375 22.671875 -28.078125 C 22.816406 -29.171875 22.890625 -30.160156 22.890625 -31.046875 C 22.835938 -31.929688 22.773438 -32.789062 22.703125 -33.625 C 22.640625 -34.457031 22.28125 -35.25 21.625 -36 C 21.113281 -36.5625 20.535156 -36.675781 19.890625 -36.34375 C 19.460938 -36.113281 19.25 -35.789062 19.25 -35.375 C 19.300781 -33.695312 19.289062 -32.207031 19.21875 -30.90625 C 19.144531 -29.601562 19.0625 -28.113281 18.96875 -26.4375 C 18.96875 -26.070312 19.1875 -25.84375 19.625 -25.75 C 20.070312 -25.65625 20.484375 -25.675781 20.859375 -25.8125 Z M 20.859375 -25.8125 "/></g></g></g></g></g><g transform="matrix(1, 0, 0, 1, 130, 229)"><g clip-path="url(#021a5029f3)"><g fill="#222222" fill-opacity="1"><g transform="translate(1.516515, 8.145657)"><g><path d="M 2.871094 0.203125 C 2.367188 0.203125 1.921875 0.101562 1.535156 -0.105469 C 1.140625 -0.316406 0.835938 -0.632812 0.613281 -1.0625 C 0.394531 -1.488281 0.285156 -2.011719 0.285156 -2.632812 C 0.285156 -3.257812 0.394531 -3.78125 0.613281 -4.207031 C 0.835938 -4.632812 1.140625 -4.953125 1.535156 -5.164062 C 1.921875 -5.371094 2.367188 -5.472656 2.871094 -5.472656 C 3.378906 -5.472656 3.824219 -5.371094 4.210938 -5.164062 C 4.601562 -4.957031 4.90625 -4.636719 5.125 -4.207031 C 5.34375 -3.78125 5.453125 -3.257812 5.453125 -2.632812 C 5.453125 -2.011719 5.34375 -1.488281 5.125 -1.0625 C 4.90625 -0.632812 4.601562 -0.3125 4.210938 -0.105469 C 3.824219 0.101562 3.378906 0.203125 2.871094 0.203125 Z M 2.871094 -0.0546875 C 3.335938 -0.0546875 3.738281 -0.144531 4.085938 -0.332031 C 4.429688 -0.515625 4.699219 -0.796875 4.898438 -1.179688 C 5.09375 -1.566406 5.195312 -2.050781 5.195312 -2.632812 C 5.195312 -3.21875 5.09375 -3.703125 4.898438 -4.089844 C 4.699219 -4.472656 4.429688 -4.753906 4.085938 -4.9375 C 3.738281 -5.121094 3.335938 -5.214844 2.871094 -5.214844 C 2.410156 -5.214844 2.003906 -5.121094 1.65625 -4.933594 C 1.3125 -4.75 1.039062 -4.46875 0.84375 -4.085938 C 0.644531 -3.699219 0.542969 -3.21875 0.542969 -2.632812 C 0.542969 -2.050781 0.644531 -1.566406 0.84375 -1.183594 C 1.039062 -0.800781 1.3125 -0.519531 1.65625 -0.332031 C 2.003906 -0.148438 2.410156 -0.0546875 2.871094 -0.0546875 Z M 2.871094 -0.957031 C 3.277344 -0.957031 3.585938 -1.085938 3.796875 -1.339844 C 4.011719 -1.605469 4.121094 -2.035156 4.121094 -2.632812 C 4.121094 -3.234375 4.011719 -3.664062 3.796875 -3.929688 C 3.585938 -4.1875 3.277344 -4.316406 2.871094 -4.316406 C 2.464844 -4.316406 2.152344 -4.1875 1.945312 -3.929688 C 1.726562 -3.664062 1.617188 -3.234375 1.617188 -2.632812 C 1.617188 -2.035156 1.726562 -1.605469 1.941406 -1.34375 C 2.152344 -1.085938 2.464844 -0.957031 2.871094 -0.957031 Z M 2.871094 -0.699219 C 2.382812 -0.699219 2.007812 -0.859375 1.742188 -1.175781 C 1.488281 -1.488281 1.359375 -1.972656 1.359375 -2.632812 C 1.359375 -3.296875 1.488281 -3.78125 1.742188 -4.09375 C 2.007812 -4.414062 2.382812 -4.574219 2.871094 -4.574219 C 3.359375 -4.574219 3.734375 -4.414062 3.996094 -4.09375 C 4.25 -3.78125 4.378906 -3.296875 4.378906 -2.632812 C 4.378906 -1.972656 4.25 -1.488281 3.996094 -1.175781 C 3.734375 -0.859375 3.359375 -0.699219 2.871094 -0.699219 Z M 2.871094 -0.699219 "/></g></g></g><g fill="#222222" fill-opacity="1"><g transform="translate(10.912379, 8.145657)"><g><path d="M 1.695312 0.128906 L 0.554688 0.128906 L 0.554688 -5.398438 L 1.949219 -5.398438 L 4.101562 -1.941406 L 3.992188 -1.875 L 3.972656 -2 L 4.066406 -2.015625 L 4.085938 -1.886719 L 3.957031 -1.886719 L 3.957031 -5.398438 L 5.21875 -5.398438 L 5.21875 0.128906 L 3.949219 0.128906 L 1.675781 -3.558594 L 1.785156 -3.625 L 1.804688 -3.5 L 1.714844 -3.484375 L 1.695312 -3.613281 L 1.824219 -3.613281 L 1.824219 0.128906 Z M 1.695312 -0.128906 L 1.695312 0 L 1.566406 0 L 1.566406 -3.722656 L 1.847656 -3.765625 L 4.132812 -0.0664062 L 4.023438 0 L 4.023438 -0.128906 L 5.089844 -0.128906 L 5.089844 0 L 4.960938 0 L 4.960938 -5.269531 L 5.089844 -5.269531 L 5.089844 -5.140625 L 4.085938 -5.140625 L 4.085938 -5.269531 L 4.214844 -5.269531 L 4.214844 -1.777344 L 3.929688 -1.734375 L 1.769531 -5.199219 L 1.878906 -5.269531 L 1.878906 -5.140625 L 0.683594 -5.140625 L 0.683594 -5.269531 L 0.8125 -5.269531 L 0.8125 0 L 0.683594 0 L 0.683594 -0.128906 Z M 1.695312 -0.128906 "/></g></g></g><g fill="#222222" fill-opacity="1"><g transform="translate(20.344278, 8.145657)"><g><path d="M 1.855469 -5.269531 L 1.855469 -0.871094 L 1.726562 -0.871094 L 1.726562 -1 L 4.222656 -1 L 4.222656 0.128906 L 0.554688 0.128906 L 0.554688 -5.398438 L 1.855469 -5.398438 Z M 1.597656 -5.269531 L 1.726562 -5.269531 L 1.726562 -5.140625 L 0.683594 -5.140625 L 0.683594 -5.269531 L 0.8125 -5.269531 L 0.8125 0 L 0.683594 0 L 0.683594 -0.128906 L 4.09375 -0.128906 L 4.09375 0 L 3.964844 0 L 3.964844 -0.871094 L 4.09375 -0.871094 L 4.09375 -0.742188 L 1.597656 -0.742188 Z M 1.597656 -5.269531 "/></g></g></g><g fill="#222222" fill-opacity="1"><g transform="translate(28.266307, 8.145657)"><g><path d="M 0.554688 -5.398438 L 1.855469 -5.398438 L 1.855469 0.128906 L 0.554688 0.128906 Z M 0.8125 -5.140625 L 0.8125 -0.128906 L 1.597656 -0.128906 L 1.597656 -5.140625 Z M 0.8125 -5.140625 "/></g></g></g><g fill="#222222" fill-opacity="1"><g transform="translate(34.33613, 8.145657)"><g><path d="M 1.695312 0.128906 L 0.554688 0.128906 L 0.554688 -5.398438 L 1.949219 -5.398438 L 4.101562 -1.941406 L 3.992188 -1.875 L 3.972656 -2 L 4.066406 -2.015625 L 4.085938 -1.886719 L 3.957031 -1.886719 L 3.957031 -5.398438 L 5.21875 -5.398438 L 5.21875 0.128906 L 3.949219 0.128906 L 1.675781 -3.558594 L 1.785156 -3.625 L 1.804688 -3.5 L 1.714844 -3.484375 L 1.695312 -3.613281 L 1.824219 -3.613281 L 1.824219 0.128906 Z M 1.695312 -0.128906 L 1.695312 0 L 1.566406 0 L 1.566406 -3.722656 L 1.847656 -3.765625 L 4.132812 -0.0664062 L 4.023438 0 L 4.023438 -0.128906 L 5.089844 -0.128906 L 5.089844 0 L 4.960938 0 L 4.960938 -5.269531 L 5.089844 -5.269531 L 5.089844 -5.140625 L 4.085938 -5.140625 L 4.085938 -5.269531 L 4.214844 -5.269531 L 4.214844 -1.777344 L 3.929688 -1.734375 L 1.769531 -5.199219 L 1.878906 -5.269531 L 1.878906 -5.140625 L 0.683594 -5.140625 L 0.683594 -5.269531 L 0.8125 -5.269531 L 0.8125 0 L 0.683594 0 L 0.683594 -0.128906 Z M 1.695312 -0.128906 "/></g></g></g><g fill="#222222" fill-opacity="1"><g transform="translate(43.76803, 8.145657)"><g><path d="M 1.855469 -2.3125 L 1.855469 -0.871094 L 1.726562 -0.871094 L 1.726562 -1 L 4.371094 -1 L 4.371094 0.128906 L 0.554688 0.128906 L 0.554688 -5.398438 L 4.3125 -5.398438 L 4.3125 -4.269531 L 1.726562 -4.269531 L 1.726562 -4.398438 L 1.855469 -4.398438 L 1.855469 -3.164062 L 1.726562 -3.164062 L 1.726562 -3.292969 L 4.003906 -3.292969 L 4.003906 -2.183594 L 1.726562 -2.183594 L 1.726562 -2.3125 Z M 1.597656 -2.441406 L 3.875 -2.441406 L 3.875 -2.3125 L 3.746094 -2.3125 L 3.746094 -3.164062 L 3.875 -3.164062 L 3.875 -3.035156 L 1.597656 -3.035156 L 1.597656 -4.527344 L 4.183594 -4.527344 L 4.183594 -4.398438 L 4.054688 -4.398438 L 4.054688 -5.269531 L 4.183594 -5.269531 L 4.183594 -5.140625 L 0.683594 -5.140625 L 0.683594 -5.269531 L 0.8125 -5.269531 L 0.8125 0 L 0.683594 0 L 0.683594 -0.128906 L 4.242188 -0.128906 L 4.242188 0 L 4.113281 0 L 4.113281 -0.871094 L 4.242188 -0.871094 L 4.242188 -0.742188 L 1.597656 -0.742188 Z M 1.597656 -2.441406 "/></g></g></g><g fill="#222222" fill-opacity="1"><g transform="translate(51.953114, 8.145657)"><g/></g></g><g fill="#222222" fill-opacity="1"><g transform="translate(57.349082, 8.145657)"><g><path d="M 5.058594 0.128906 L 3.867188 0.128906 L 3.441406 -1.175781 L 3.566406 -1.214844 L 3.566406 -1.085938 L 1.546875 -1.085938 L 1.546875 -1.214844 L 1.667969 -1.175781 L 1.242188 0.128906 L -0.101562 0.128906 L 1.808594 -5.398438 L 3.328125 -5.398438 L 5.238281 0.128906 Z M 5.058594 -0.128906 L 5.058594 0 L 4.933594 0.0429688 L 3.113281 -5.226562 L 3.238281 -5.269531 L 3.238281 -5.140625 L 1.898438 -5.140625 L 1.898438 -5.269531 L 2.023438 -5.226562 L 0.203125 0.0429688 L 0.078125 0 L 0.078125 -0.128906 L 1.148438 -0.128906 L 1.148438 0 L 1.027344 -0.0390625 L 1.453125 -1.34375 L 3.660156 -1.34375 L 4.082031 -0.0390625 L 3.960938 0 L 3.960938 -0.128906 Z M 2.628906 -4.128906 L 1.949219 -2.050781 L 1.828125 -2.089844 L 1.828125 -2.21875 L 3.277344 -2.21875 L 3.277344 -2.089844 L 3.152344 -2.050781 L 2.472656 -4.128906 L 2.59375 -4.171875 L 2.59375 -4.039062 L 2.503906 -4.039062 L 2.503906 -4.171875 Z M 2.410156 -4.300781 L 2.6875 -4.300781 L 3.453125 -1.960938 L 1.648438 -1.960938 L 2.382812 -4.210938 Z M 2.410156 -4.300781 "/></g></g></g><g fill="#222222" fill-opacity="1"><g transform="translate(66.139556, 8.145657)"><g><path d="M 2.792969 0.203125 C 2.03125 0.203125 1.464844 0.0195312 1.089844 -0.347656 C 0.710938 -0.71875 0.523438 -1.261719 0.523438 -1.976562 L 0.523438 -5.398438 L 1.800781 -5.398438 L 1.800781 -1.980469 C 1.800781 -1.632812 1.882812 -1.375 2.042969 -1.207031 C 2.203125 -1.042969 2.453125 -0.957031 2.792969 -0.957031 C 3.128906 -0.957031 3.378906 -1.042969 3.542969 -1.207031 C 3.703125 -1.375 3.785156 -1.632812 3.785156 -1.980469 L 3.785156 -5.398438 L 5.0625 -5.398438 L 5.0625 -1.976562 C 5.0625 -1.261719 4.875 -0.71875 4.5 -0.347656 C 4.121094 0.0195312 3.554688 0.203125 2.792969 0.203125 Z M 2.792969 -0.0546875 C 3.484375 -0.0546875 3.992188 -0.214844 4.316406 -0.535156 C 4.640625 -0.851562 4.804688 -1.332031 4.804688 -1.976562 L 4.804688 -5.269531 L 4.933594 -5.269531 L 4.933594 -5.140625 L 3.914062 -5.140625 L 3.914062 -5.269531 L 4.042969 -5.269531 L 4.042969 -1.980469 C 4.042969 -1.5625 3.9375 -1.246094 3.726562 -1.027344 C 3.515625 -0.808594 3.203125 -0.699219 2.792969 -0.699219 C 2.378906 -0.699219 2.066406 -0.808594 1.855469 -1.027344 C 1.648438 -1.246094 1.542969 -1.5625 1.542969 -1.980469 L 1.542969 -5.269531 L 1.671875 -5.269531 L 1.671875 -5.140625 L 0.652344 -5.140625 L 0.652344 -5.269531 L 0.78125 -5.269531 L 0.78125 -1.976562 C 0.78125 -1.332031 0.945312 -0.851562 1.269531 -0.535156 C 1.59375 -0.214844 2.101562 -0.0546875 2.792969 -0.0546875 Z M 2.792969 -0.0546875 "/></g></g></g><g fill="#222222" fill-opacity="1"><g transform="translate(75.380469, 8.145657)"><g><path d="M 2.878906 0.203125 C 2.371094 0.203125 1.925781 0.0976562 1.535156 -0.113281 C 1.140625 -0.328125 0.835938 -0.648438 0.613281 -1.078125 C 0.394531 -1.5 0.285156 -2.019531 0.285156 -2.632812 C 0.285156 -3.25 0.394531 -3.769531 0.613281 -4.191406 C 0.835938 -4.621094 1.140625 -4.941406 1.535156 -5.15625 C 1.925781 -5.367188 2.371094 -5.472656 2.878906 -5.472656 C 3.410156 -5.472656 3.859375 -5.371094 4.234375 -5.160156 C 4.617188 -4.945312 4.890625 -4.621094 5.050781 -4.1875 L 5.089844 -4.085938 L 4.203125 -3.546875 L 3.992188 -3.554688 L 3.960938 -3.628906 C 3.859375 -3.878906 3.722656 -4.054688 3.554688 -4.160156 C 3.378906 -4.265625 3.15625 -4.320312 2.878906 -4.320312 C 2.480469 -4.320312 2.175781 -4.1875 1.953125 -3.929688 C 1.730469 -3.664062 1.617188 -3.234375 1.617188 -2.632812 C 1.617188 -2.039062 1.730469 -1.609375 1.953125 -1.34375 C 2.175781 -1.085938 2.480469 -0.953125 2.878906 -0.953125 C 3.191406 -0.953125 3.441406 -1.027344 3.628906 -1.175781 C 3.8125 -1.324219 3.941406 -1.550781 4.011719 -1.851562 L 4.035156 -1.953125 L 4.257812 -1.953125 L 5.148438 -1.488281 L 5.121094 -1.386719 C 4.96875 -0.859375 4.703125 -0.460938 4.332031 -0.195312 C 3.960938 0.0703125 3.476562 0.203125 2.878906 0.203125 Z M 2.878906 -0.0546875 C 3.421875 -0.0546875 3.855469 -0.171875 4.179688 -0.402344 C 4.503906 -0.636719 4.734375 -0.988281 4.871094 -1.460938 L 4.996094 -1.421875 L 4.9375 -1.308594 L 4.167969 -1.710938 L 4.226562 -1.824219 L 4.226562 -1.695312 L 4.136719 -1.695312 L 4.136719 -1.824219 L 4.261719 -1.792969 C 4.179688 -1.433594 4.019531 -1.160156 3.789062 -0.972656 C 3.554688 -0.789062 3.253906 -0.695312 2.878906 -0.695312 C 2.402344 -0.695312 2.027344 -0.855469 1.757812 -1.175781 C 1.492188 -1.488281 1.359375 -1.976562 1.359375 -2.632812 C 1.359375 -3.296875 1.492188 -3.78125 1.757812 -4.097656 C 2.027344 -4.417969 2.402344 -4.578125 2.878906 -4.578125 C 3.203125 -4.578125 3.472656 -4.511719 3.6875 -4.378906 C 3.90625 -4.246094 4.074219 -4.027344 4.199219 -3.730469 L 4.078125 -3.679688 L 4.085938 -3.808594 L 4.175781 -3.804688 L 4.171875 -3.675781 L 4.101562 -3.785156 L 4.863281 -4.25 L 4.929688 -4.140625 L 4.808594 -4.097656 C 4.667969 -4.472656 4.4375 -4.753906 4.109375 -4.933594 C 3.773438 -5.121094 3.363281 -5.214844 2.878906 -5.214844 C 2.417969 -5.214844 2.007812 -5.121094 1.660156 -4.929688 C 1.3125 -4.738281 1.039062 -4.453125 0.84375 -4.074219 C 0.644531 -3.6875 0.542969 -3.207031 0.542969 -2.632812 C 0.542969 -2.0625 0.644531 -1.582031 0.84375 -1.195312 C 1.039062 -0.816406 1.3125 -0.53125 1.660156 -0.339844 C 2.007812 -0.148438 2.417969 -0.0546875 2.878906 -0.0546875 Z M 2.878906 -0.0546875 "/></g></g></g><g fill="#222222" fill-opacity="1"><g transform="translate(84.203375, 8.145657)"><g><path d="M 4.351562 -5.269531 L 4.351562 -4.265625 L 2.703125 -4.265625 L 2.703125 -4.394531 L 2.832031 -4.394531 L 2.832031 0.128906 L 1.535156 0.128906 L 1.535156 -4.394531 L 1.664062 -4.394531 L 1.664062 -4.265625 L 0.015625 -4.265625 L 0.015625 -5.398438 L 4.351562 -5.398438 Z M 4.09375 -5.269531 L 4.222656 -5.269531 L 4.222656 -5.140625 L 0.144531 -5.140625 L 0.144531 -5.269531 L 0.273438 -5.269531 L 0.273438 -4.394531 L 0.144531 -4.394531 L 0.144531 -4.523438 L 1.792969 -4.523438 L 1.792969 0 L 1.664062 0 L 1.664062 -0.128906 L 2.703125 -0.128906 L 2.703125 0 L 2.574219 0 L 2.574219 -4.523438 L 4.222656 -4.523438 L 4.222656 -4.394531 L 4.09375 -4.394531 Z M 4.09375 -5.269531 "/></g></g></g><g fill="#222222" fill-opacity="1"><g transform="translate(92.226301, 8.145657)"><g><path d="M 0.554688 -5.398438 L 1.855469 -5.398438 L 1.855469 0.128906 L 0.554688 0.128906 Z M 0.8125 -5.140625 L 0.8125 -0.128906 L 1.597656 -0.128906 L 1.597656 -5.140625 Z M 0.8125 -5.140625 "/></g></g></g><g fill="#222222" fill-opacity="1"><g transform="translate(98.296125, 8.145657)"><g><path d="M 2.871094 0.203125 C 2.367188 0.203125 1.921875 0.101562 1.535156 -0.105469 C 1.140625 -0.316406 0.835938 -0.632812 0.613281 -1.0625 C 0.394531 -1.488281 0.285156 -2.011719 0.285156 -2.632812 C 0.285156 -3.257812 0.394531 -3.78125 0.613281 -4.207031 C 0.835938 -4.632812 1.140625 -4.953125 1.535156 -5.164062 C 1.921875 -5.371094 2.367188 -5.472656 2.871094 -5.472656 C 3.378906 -5.472656 3.824219 -5.371094 4.210938 -5.164062 C 4.601562 -4.957031 4.90625 -4.636719 5.125 -4.207031 C 5.34375 -3.78125 5.453125 -3.257812 5.453125 -2.632812 C 5.453125 -2.011719 5.34375 -1.488281 5.125 -1.0625 C 4.90625 -0.632812 4.601562 -0.3125 4.210938 -0.105469 C 3.824219 0.101562 3.378906 0.203125 2.871094 0.203125 Z M 2.871094 -0.0546875 C 3.335938 -0.0546875 3.738281 -0.144531 4.085938 -0.332031 C 4.429688 -0.515625 4.699219 -0.796875 4.898438 -1.179688 C 5.09375 -1.566406 5.195312 -2.050781 5.195312 -2.632812 C 5.195312 -3.21875 5.09375 -3.703125 4.898438 -4.089844 C 4.699219 -4.472656 4.429688 -4.753906 4.085938 -4.9375 C 3.738281 -5.121094 3.335938 -5.214844 2.871094 -5.214844 C 2.410156 -5.214844 2.003906 -5.121094 1.65625 -4.933594 C 1.3125 -4.75 1.039062 -4.46875 0.84375 -4.085938 C 0.644531 -3.699219 0.542969 -3.21875 0.542969 -2.632812 C 0.542969 -2.050781 0.644531 -1.566406 0.84375 -1.183594 C 1.039062 -0.800781 1.3125 -0.519531 1.65625 -0.332031 C 2.003906 -0.148438 2.410156 -0.0546875 2.871094 -0.0546875 Z M 2.871094 -0.957031 C 3.277344 -0.957031 3.585938 -1.085938 3.796875 -1.339844 C 4.011719 -1.605469 4.121094 -2.035156 4.121094 -2.632812 C 4.121094 -3.234375 4.011719 -3.664062 3.796875 -3.929688 C 3.585938 -4.1875 3.277344 -4.316406 2.871094 -4.316406 C 2.464844 -4.316406 2.152344 -4.1875 1.945312 -3.929688 C 1.726562 -3.664062 1.617188 -3.234375 1.617188 -2.632812 C 1.617188 -2.035156 1.726562 -1.605469 1.941406 -1.34375 C 2.152344 -1.085938 2.464844 -0.957031 2.871094 -0.957031 Z M 2.871094 -0.699219 C 2.382812 -0.699219 2.007812 -0.859375 1.742188 -1.175781 C 1.488281 -1.488281 1.359375 -1.972656 1.359375 -2.632812 C 1.359375 -3.296875 1.488281 -3.78125 1.742188 -4.09375 C 2.007812 -4.414062 2.382812 -4.574219 2.871094 -4.574219 C 3.359375 -4.574219 3.734375 -4.414062 3.996094 -4.09375 C 4.25 -3.78125 4.378906 -3.296875 4.378906 -2.632812 C 4.378906 -1.972656 4.25 -1.488281 3.996094 -1.175781 C 3.734375 -0.859375 3.359375 -0.699219 2.871094 -0.699219 Z M 2.871094 -0.699219 "/></g></g></g><g fill="#222222" fill-opacity="1"><g transform="translate(107.691989, 8.145657)"><g><path d="M 1.695312 0.128906 L 0.554688 0.128906 L 0.554688 -5.398438 L 1.949219 -5.398438 L 4.101562 -1.941406 L 3.992188 -1.875 L 3.972656 -2 L 4.066406 -2.015625 L 4.085938 -1.886719 L 3.957031 -1.886719 L 3.957031 -5.398438 L 5.21875 -5.398438 L 5.21875 0.128906 L 3.949219 0.128906 L 1.675781 -3.558594 L 1.785156 -3.625 L 1.804688 -3.5 L 1.714844 -3.484375 L 1.695312 -3.613281 L 1.824219 -3.613281 L 1.824219 0.128906 Z M 1.695312 -0.128906 L 1.695312 0 L 1.566406 0 L 1.566406 -3.722656 L 1.847656 -3.765625 L 4.132812 -0.0664062 L 4.023438 0 L 4.023438 -0.128906 L 5.089844 -0.128906 L 5.089844 0 L 4.960938 0 L 4.960938 -5.269531 L 5.089844 -5.269531 L 5.089844 -5.140625 L 4.085938 -5.140625 L 4.085938 -5.269531 L 4.214844 -5.269531 L 4.214844 -1.777344 L 3.929688 -1.734375 L 1.769531 -5.199219 L 1.878906 -5.269531 L 1.878906 -5.140625 L 0.683594 -5.140625 L 0.683594 -5.269531 L 0.8125 -5.269531 L 0.8125 0 L 0.683594 0 L 0.683594 -0.128906 Z M 1.695312 -0.128906 "/></g></g></g><g fill="#ffffff" fill-opacity="1"><g transform="translate(1.516515, 8.145657)"><g><path d="M 2.875 0.078125 C 2.382812 0.078125 1.957031 -0.0195312 1.59375 -0.21875 C 1.226562 -0.414062 0.941406 -0.71875 0.734375 -1.125 C 0.523438 -1.53125 0.421875 -2.03125 0.421875 -2.625 C 0.421875 -3.226562 0.523438 -3.734375 0.734375 -4.140625 C 0.941406 -4.546875 1.226562 -4.847656 1.59375 -5.046875 C 1.957031 -5.242188 2.382812 -5.34375 2.875 -5.34375 C 3.351562 -5.34375 3.773438 -5.242188 4.140625 -5.046875 C 4.515625 -4.847656 4.800781 -4.546875 5 -4.140625 C 5.207031 -3.734375 5.3125 -3.226562 5.3125 -2.625 C 5.3125 -2.03125 5.207031 -1.53125 5 -1.125 C 4.800781 -0.71875 4.515625 -0.414062 4.140625 -0.21875 C 3.773438 -0.0195312 3.351562 0.078125 2.875 0.078125 Z M 2.875 -0.828125 C 3.320312 -0.828125 3.660156 -0.96875 3.890625 -1.25 C 4.128906 -1.539062 4.25 -2 4.25 -2.625 C 4.25 -3.257812 4.128906 -3.71875 3.890625 -4 C 3.660156 -4.289062 3.320312 -4.4375 2.875 -4.4375 C 2.425781 -4.4375 2.082031 -4.289062 1.84375 -4 C 1.601562 -3.71875 1.484375 -3.257812 1.484375 -2.625 C 1.484375 -2 1.601562 -1.539062 1.84375 -1.25 C 2.082031 -0.96875 2.425781 -0.828125 2.875 -0.828125 Z M 2.875 -0.828125 "/></g></g></g><g fill="#ffffff" fill-opacity="1"><g transform="translate(10.912379, 8.145657)"><g><path d="M 1.6875 0 L 0.6875 0 L 0.6875 -5.265625 L 1.875 -5.265625 L 3.984375 -1.875 L 4.078125 -1.890625 L 4.078125 -5.265625 L 5.078125 -5.265625 L 5.078125 0 L 4.015625 0 L 1.78125 -3.625 L 1.6875 -3.609375 Z M 1.6875 0 "/></g></g></g><g fill="#ffffff" fill-opacity="1"><g transform="translate(20.344278, 8.145657)"><g><path d="M 1.71875 -5.265625 L 1.71875 -0.875 L 4.09375 -0.875 L 4.09375 0 L 0.6875 0 L 0.6875 -5.265625 Z M 1.71875 -5.265625 "/></g></g></g><g fill="#ffffff" fill-opacity="1"><g transform="translate(28.266307, 8.145657)"><g><path d="M 1.71875 0 L 0.6875 0 L 0.6875 -5.265625 L 1.71875 -5.265625 Z M 1.71875 0 "/></g></g></g><g fill="#ffffff" fill-opacity="1"><g transform="translate(34.33613, 8.145657)"><g><path d="M 1.6875 0 L 0.6875 0 L 0.6875 -5.265625 L 1.875 -5.265625 L 3.984375 -1.875 L 4.078125 -1.890625 L 4.078125 -5.265625 L 5.078125 -5.265625 L 5.078125 0 L 4.015625 0 L 1.78125 -3.625 L 1.6875 -3.609375 Z M 1.6875 0 "/></g></g></g><g fill="#ffffff" fill-opacity="1"><g transform="translate(43.76803, 8.145657)"><g><path d="M 1.71875 -2.3125 L 1.71875 -0.875 L 4.234375 -0.875 L 4.234375 0 L 0.6875 0 L 0.6875 -5.265625 L 4.1875 -5.265625 L 4.1875 -4.390625 L 1.71875 -4.390625 L 1.71875 -3.15625 L 3.875 -3.15625 L 3.875 -2.3125 Z M 1.71875 -2.3125 "/></g></g></g><g fill="#ffffff" fill-opacity="1"><g transform="translate(51.953114, 8.145657)"><g/></g></g><g fill="#ffffff" fill-opacity="1"><g transform="translate(57.349082, 8.145657)"><g><path d="M 5.046875 0 L 3.953125 0 L 3.5625 -1.21875 L 1.546875 -1.21875 L 1.15625 0 L 0.078125 0 L 1.890625 -5.265625 L 3.234375 -5.265625 Z M 2.5 -4.171875 L 1.828125 -2.09375 L 3.265625 -2.09375 L 2.59375 -4.171875 Z M 2.5 -4.171875 "/></g></g></g><g fill="#ffffff" fill-opacity="1"><g transform="translate(66.139556, 8.145657)"><g><path d="M 2.796875 0.078125 C 2.066406 0.078125 1.523438 -0.09375 1.171875 -0.4375 C 0.828125 -0.78125 0.65625 -1.289062 0.65625 -1.96875 L 0.65625 -5.265625 L 1.671875 -5.265625 L 1.671875 -1.984375 C 1.671875 -1.597656 1.757812 -1.304688 1.9375 -1.109375 C 2.125 -0.921875 2.410156 -0.828125 2.796875 -0.828125 C 3.535156 -0.828125 3.90625 -1.210938 3.90625 -1.984375 L 3.90625 -5.265625 L 4.9375 -5.265625 L 4.9375 -1.96875 C 4.9375 -1.289062 4.757812 -0.78125 4.40625 -0.4375 C 4.050781 -0.09375 3.515625 0.078125 2.796875 0.078125 Z M 2.796875 0.078125 "/></g></g></g><g fill="#ffffff" fill-opacity="1"><g transform="translate(75.380469, 8.145657)"><g><path d="M 2.875 0.078125 C 2.394531 0.078125 1.96875 -0.0195312 1.59375 -0.21875 C 1.226562 -0.425781 0.941406 -0.734375 0.734375 -1.140625 C 0.523438 -1.546875 0.421875 -2.039062 0.421875 -2.625 C 0.421875 -3.21875 0.523438 -3.71875 0.734375 -4.125 C 0.941406 -4.53125 1.226562 -4.832031 1.59375 -5.03125 C 1.96875 -5.238281 2.394531 -5.34375 2.875 -5.34375 C 3.382812 -5.34375 3.816406 -5.242188 4.171875 -5.046875 C 4.523438 -4.847656 4.773438 -4.546875 4.921875 -4.140625 L 4.171875 -3.671875 L 4.078125 -3.671875 C 3.960938 -3.953125 3.804688 -4.148438 3.609375 -4.265625 C 3.421875 -4.378906 3.175781 -4.4375 2.875 -4.4375 C 2.4375 -4.4375 2.09375 -4.289062 1.84375 -4 C 1.601562 -3.71875 1.484375 -3.257812 1.484375 -2.625 C 1.484375 -2 1.601562 -1.539062 1.84375 -1.25 C 2.09375 -0.96875 2.4375 -0.828125 2.875 -0.828125 C 3.5625 -0.828125 3.984375 -1.160156 4.140625 -1.828125 L 4.21875 -1.828125 L 4.984375 -1.421875 C 4.847656 -0.921875 4.601562 -0.546875 4.25 -0.296875 C 3.90625 -0.046875 3.445312 0.078125 2.875 0.078125 Z M 2.875 0.078125 "/></g></g></g><g fill="#ffffff" fill-opacity="1"><g transform="translate(84.203375, 8.145657)"><g><path d="M 4.21875 -5.265625 L 4.21875 -4.390625 L 2.703125 -4.390625 L 2.703125 0 L 1.65625 0 L 1.65625 -4.390625 L 0.140625 -4.390625 L 0.140625 -5.265625 Z M 4.21875 -5.265625 "/></g></g></g><g fill="#ffffff" fill-opacity="1"><g transform="translate(92.226301, 8.145657)"><g><path d="M 1.71875 0 L 0.6875 0 L 0.6875 -5.265625 L 1.71875 -5.265625 Z M 1.71875 0 "/></g></g></g><g fill="#ffffff" fill-opacity="1"><g transform="translate(98.296125, 8.145657)"><g><path d="M 2.875 0.078125 C 2.382812 0.078125 1.957031 -0.0195312 1.59375 -0.21875 C 1.226562 -0.414062 0.941406 -0.71875 0.734375 -1.125 C 0.523438 -1.53125 0.421875 -2.03125 0.421875 -2.625 C 0.421875 -3.226562 0.523438 -3.734375 0.734375 -4.140625 C 0.941406 -4.546875 1.226562 -4.847656 1.59375 -5.046875 C 1.957031 -5.242188 2.382812 -5.34375 2.875 -5.34375 C 3.351562 -5.34375 3.773438 -5.242188 4.140625 -5.046875 C 4.515625 -4.847656 4.800781 -4.546875 5 -4.140625 C 5.207031 -3.734375 5.3125 -3.226562 5.3125 -2.625 C 5.3125 -2.03125 5.207031 -1.53125 5 -1.125 C 4.800781 -0.71875 4.515625 -0.414062 4.140625 -0.21875 C 3.773438 -0.0195312 3.351562 0.078125 2.875 0.078125 Z M 2.875 -0.828125 C 3.320312 -0.828125 3.660156 -0.96875 3.890625 -1.25 C 4.128906 -1.539062 4.25 -2 4.25 -2.625 C 4.25 -3.257812 4.128906 -3.71875 3.890625 -4 C 3.660156 -4.289062 3.320312 -4.4375 2.875 -4.4375 C 2.425781 -4.4375 2.082031 -4.289062 1.84375 -4 C 1.601562 -3.71875 1.484375 -3.257812 1.484375 -2.625 C 1.484375 -2 1.601562 -1.539062 1.84375 -1.25 C 2.082031 -0.96875 2.425781 -0.828125 2.875 -0.828125 Z M 2.875 -0.828125 "/></g></g></g><g fill="#ffffff" fill-opacity="1"><g transform="translate(107.691989, 8.145657)"><g><path d="M 1.6875 0 L 0.6875 0 L 0.6875 -5.265625 L 1.875 -5.265625 L 3.984375 -1.875 L 4.078125 -1.890625 L 4.078125 -5.265625 L 5.078125 -5.265625 L 5.078125 0 L 4.015625 0 L 1.78125 -3.625 L 1.6875 -3.609375 Z M 1.6875 0 "/></g></g></g></g></g></svg>